<svg xmlns="http://www.w3.org/2000/svg" width="167" height="24" fill="none"><path fill="#172A2D" d="M58.118 3.725c2.717-.13 5.385-.083 7.911 1.064 1 .454 1.883 1.016 2.91 1.447 1.23-.786 2.459-1.548 3.87-1.973 2.271-.684 6.448-.89 8.581.234a5.34 5.34 0 0 1 2.659 3.165c.288.936.388 2.273.28 3.208-.253 2.187-2.525 11.477-3.37 13.067-1.63.074-3.393-.598-3.399-2.41-.014-3.846 2.415-7.644 2.248-11.546-.029-.671.086-1.553-.77-1.696-2.118-.354-4.503-.176-6.403.91-2.192 1.201-2.427 4.274-3.071 6.527-.474 1.508-1.408 5.938-2.248 7.139-.292.418-3.74.213-4.52.123.286-2.459 1.58-5.555 2.143-8.038.233-1.03 1.123-3.305.967-4.274-.48-2.984-6.03-2.602-8.115-2.45-.4.83-.75 2.21-1.011 3.126a449 449 0 0 0-1.7 6.128c-1.1 4.133-1.1 6.635-6.242 6.402.395-1.887 4.734-18.42 5.367-19.166.801-.945 2.771-.885 3.913-.987m-51.383.207c5.28-.224 13.872-.27 16.842 4.822 2.355 4.326.427 10.458-3.835 12.83-5.02 2.794-10.319 2.313-15.819 2.387-1.686.11-4.268 0-3.885-2.458.348-2.23 1.234-4.865 1.834-7.083 1.002-3.373 2.078-4.184 5.59-4.168-.022 1.154-.668 3.16-1 4.35a147 147 0 0 0-1.35 5.052c2.25-.119 4.674-.16 6.88-.348 2.391-.204 5.378-.918 6.92-2.896.981-1.26 1.33-2.661 1.14-4.255-.273-2.308-1.892-2.75-3.764-3.227-2.476-.632-4.38-.719-6.908-.677-.953.016-2.79.075-3.635-.07a4.2 4.2 0 0 1-1.972-.89c-.687-.556-1.873-2.325-1.28-3.054.365-.45 3.563-.305 4.242-.315m96.552-.139c1.516-.206 2.17.255 2.707 1.635.395 1.01.715 2.022 1.06 3.05l2.063 6.22 1.936 5.652c.358 1.055.837 2.348 1.067 3.418-5.399.6-5.347-2.094-6.782-6.375l-2.746-8.122c-3.211 2.611-5.613 4.683-8.016 8.172l1.438.011c2.242 0 5.292-.08 7.467.072-.857 4.902-4.119 3.897-7.97 3.936-1.277.012-2.617.001-3.893.088-1.02.625-1.758 1.525-2.956 2.01-.65.264-3.182.74-3.46-.018.034-.224.12-.51.241-.706 4.02-6.491 8.48-12.972 14.884-17.336.956-.652 1.883-1.363 2.96-1.707m54.726-.084c1.672.065 1.974 1.075 2.466 2.454.847 2.375 1.586 4.789 2.396 7.175l2.111 6.233c.39 1.13 1.186 3.114 1.303 4.226-5.412.314-5.038-1.558-6.543-5.95l-2.963-8.529c-2.245 1.55-6.78 5.785-8.05 8.135l1.541.018c1.213 0 6.217-.084 7.197.087l.102.186c.007 1.516-1.325 3.392-2.865 3.576-2.941.351-6.023.067-9 .204-1.922 1.629-3.309 2.785-5.98 2.326-.225-.038-.219-.097-.319-.272.062-.922 3.607-5.967 4.333-6.998 2.963-4.206 6.715-8.39 11.029-11.236 1.244-.82 1.729-1.399 3.242-1.635M151.925 0c.841.017 4.332.188 4.674 1.058-.173.41-.621.557-1.047.635-5.088.939-10.585 2.79-15.125 5.276a77 77 0 0 0-11.529 7.739 86 86 0 0 0-4.221 3.648c-1.662 1.56-4.258 4.64-6.082 5.386-.712.208-4.204.36-4.657-.153.027-.861 2.316-3.292 3.036-4.017C126.658 9.83 137.586.639 151.925 0M30.634 3.715c.482-.018 1.058-.07 1.419.274.15.702-.044 1.759 0 2.492.224 3.632 1.826 5.231 5.511 5.127 2.91.087 5.07-1.72 6.324-4.243 1.005-2.022 1.893-3.62 4.489-3.58.53.007 1.178-.062 1.609.353a1 1 0 0 1-.01.334c-.268 1.333-2.3 5.462-3.113 6.693-.692 1.047-1.981 2.28-3.047 3-.632.405-4.352 1.973-4.325 1.939-1.31 1.657-.906 5.188-2.719 6.75-1.208 1.04-2.667 1.12-4.18 1.035.238-2.081 1.581-5.721 2.073-8.041-3.486-.915-5.992-3.142-6.696-6.754-.462-2.367-.07-4.815 2.665-5.379"/><path fill="#172A2D" d="M130.61 15.523c.507.007 6.949 7.272 7.329 8.204-1.057.218-1.881.269-2.952.273a11 11 0 0 1-.444-.044c-2.433-.293-3.483-1.543-4.986-3.297-.701-.82-1.418-1.553-2.101-2.423.834-1.005 2.106-1.932 3.154-2.713M116.711 3.722c3.313-.147 5.059 1.047 6.928 3.605.557.762 1.051 1.198 1.559 2.1-.544.533-1.429 1.264-2.03 1.796-.367.334-.74.61-1.136.908-.721-.528-6.208-6.849-6.78-7.735-.067-.636.992-.626 1.459-.674"/></svg>