<svg xmlns="http://www.w3.org/2000/svg" width="118" height="24" fill="none"><g fill="#172A2D" clip-path="url(#a)"><path d="M43.943 1.092h3.422v6.33q.066-.072.135-.143c2.25-2.275 6.42-1.495 7.06 1.826.2 1.04.118 2.315.118 3.389l-.002 5.22h-3.423v-3.743c-.007-1.75.614-4.884-1.94-4.824-2.337.055-1.95 2.54-1.948 4.132v4.435h-3.422zm49.31 4.93c2.8-.35 5.656 1.316 6.328 4.113.245 1.018.227 1.7.219 2.735h-8.815c.636 2.648 3.827 3.296 5.296 1.125H99c.179-.004.38-.022.545.04-.022.514-.622 1.494-.948 1.9-.985 1.235-2.32 1.815-3.852 2.014-3.479.45-6.585-1.61-6.98-5.234a6.1 6.1 0 0 1 1.27-4.486c1.085-1.35 2.521-2.022 4.217-2.207Zm-2.115 4.59h3.006l2.366-.002c-.622-1.392-1.395-1.86-2.926-1.84-1.304.176-1.884.672-2.446 1.841ZM61.37 6.021q.26-.021.52-.023c1.399-.007 2.713.29 3.743 1.293 1.517 1.477 1.222 3.597 1.22 5.524l.003 4.9h-3.247v-1.26c-1.687 2.067-5.062 2.157-6.576-.105-.22-.42-.319-.68-.378-1.116-.639-4.732 6.241-4.278 6.83-5.072.179-1.425-2.887-2.176-3.336-.008h-3.318c.298-2.541 2.096-3.856 4.54-4.133Zm-1.068 9.062c1.627.857 3.518-.864 3.16-2.402l-.05-.039c-1.002.207-4.684.654-3.11 2.441M81.491 6.02c2.418-.298 4.383 1.304 4.53 3.75.058.953.03 1.914.03 2.87l-.003 5.074h-3.423l.006-4.508c0-.832.052-1.775-.07-2.59-.248-1.663-2.258-1.872-3.333-.864-.67.822-.496 2.488-.495 3.528l.006 4.434h-3.424V6.286h3.256v1.37c.8-1.04 1.64-1.463 2.92-1.636m-45.822 0c3.25-.408 6.015 1.789 6.544 4.99h-3.394a6 6 0 0 0-.109-.288 2.5 2.5 0 0 0-1.353-1.364c-1.39-.572-3.054.022-3.634 1.448a3.22 3.22 0 0 0 .018 2.43c.736 1.728 2.914 2.128 4.342.955.38-.312.587-.77.766-1.217h3.372c-.463 2.791-2.338 4.645-5.245 4.995-5.57.671-8.934-5.368-5.596-9.793 1.007-1.335 2.62-1.98 4.289-2.155Zm66.099-4.928h3.422v16.621l-3.422.001zM69.314 6.286h3.424v11.429h-3.424zM70.499.949a2.101 2.101 0 1 1 1.014 4.078A2.101 2.101 0 0 1 70.5.95ZM11.515 6.022c3.478-.255 5.87 1.614 6.58 4.989h-3.408a6 6 0 0 0-.112-.286c-.607-1.436-2.208-1.915-3.605-1.344-1.458.597-1.968 2.496-1.364 3.878a2.56 2.56 0 0 0 1.447 1.392c1.596.62 3.055-.1 3.653-1.677h3.388c-.241 1.153-.502 1.945-1.253 2.893-2.05 2.59-6.246 2.813-8.755.792a5.85 5.85 0 0 1-2.111-3.943c-.39-3.625 1.965-6.317 5.54-6.694"/><path d="M13.548 0h10.467v24H13.548v-3.107h7.35V3.107h-7.35zM.001 0h10.456v3.107H3.11v17.786h7.348V24H.001zm110.607 13.985q.01.147.028.295c.121.924 1.106 1.247 1.91 1.128.56-.082 1.176-.433 1.061-1.081-.156-.891-1.406-.912-2.101-1.09-1.781-.349-3.694-.887-4.022-2.937-.456-2.705 1.916-4.253 4.366-4.3 2.825-.055 4.681.876 5.123 3.777h-3.483a7 7 0 0 0-.057-.32c-.162-.774-.973-.98-1.655-.828-.944.211-1.23 1.17-.239 1.573.331.137.693.195 1.043.273 1.517.34 3.353.631 4.204 2.101.192.333.269.66.357 1.034v1.117c-.123.548-.332 1.243-.71 1.688-1.759 2.065-5.983 2.06-8.038.488-.947-.724-1.268-1.785-1.391-2.918z"/></g><defs><clipPath id="a"><path fill="#fff" d="M0 0h117.143v24H0z"/></clipPath></defs></svg>