<svg xmlns="http://www.w3.org/2000/svg" width="105" height="24" fill="none"><g fill="#172A2D" clip-path="url(#a)"><path d="M80.302 5.084c3.284-.163 7.085.596 7.923 4.35.27 1.206.177 2.666.176 3.92l-.004 4.98h-3.312c.012-1.13.039-2.688-.024-3.785-.23 1.071-.44 1.819-1.318 2.588-2.065 1.812-5.753 2.102-8.096.67-.556-.34-.928-.774-1.299-1.31-.795-1.32-.598-3.282.529-4.363 1.764-1.694 4.251-1.48 6.499-1.477l3.662-.001c0-.589-.086-1.435-.501-1.876-1.52-1.614-5.77-1.522-6.98.45-.149.241-.192.62-.207.903q-1.578-.016-3.156.009c.028-3.786 2.72-4.895 6.108-5.058m1.411 10.993c.97-.14 2.356-.555 2.98-1.378.402-.53.41-1.035.4-1.661-1.393-.002-2.88-.03-4.267.007-.79.037-3.646.157-3.491 1.568.152 1.393 2.232 1.654 3.392 1.573q.496-.032.986-.11ZM.001 0h7.2c.367 1.221.859 2.558 1.278 3.774l1.785 5.25 2.054 6.029c.36 1.069.739 2.29 1.122 3.341-.104-.698-.074-1.69-.074-2.42l.002-3.616L13.37 0h7.169c.567 1.448 1.083 3.078 1.582 4.561l2.316 6.817 1.547 4.52c.188.545.706 1.967.803 2.467-1.134-.023-2.58.05-3.657-.028-.47-1.592-1.069-3.221-1.606-4.798l-2.89-8.52c-.447-1.323-1.333-3.66-1.62-4.928-.053.677-.033 1.52-.032 2.213v3.453c0 4.149.055 8.437-.004 12.579l-7.236.02c-.478-1.69-1.272-3.838-1.853-5.51L4.955 4.175c-.448-1.34-.964-2.687-1.367-4.041.084 5.292-.04 10.613.009 15.907.007.757.011 1.54-.007 2.295l-3.589-.004zm48.677 0h3.592l.003 11.904c0 2.071-.03 4.221.006 6.283.255-.578.443-1.321.654-1.941q.709-2.023 1.388-4.057C55.662 8.182 57.066 3.971 58.479 0h7.193l.001 12.147v3.778c0 .736.022 1.709-.047 2.426L69.83 6.013c.681-1.989 1.34-4.042 2.05-6.013h3.649c-.166.388-.381 1.09-.528 1.514L73.62 5.59l-4.35 12.746-7.208-.002c-.06-4.233.042-8.53-.003-12.767-.02-1.77.05-3.697-.025-5.45-.548 1.913-1.252 3.697-1.86 5.565-1.37 4.214-2.94 8.435-4.278 12.65h-7.22L48.679 0Zm55.854 5.38v.189c-.238.542-.464 1.278-.658 1.85l-.886 2.592-2.433 7.169c-.256.754-.583 1.605-.825 2.35-.87 2.688-1.655 3.662-4.345 4.47H90.75c-.02-1.14-.003-2.33-.003-3.473.937 0 3.692.14 4.425-.152.777-.31.948-1.31 1.25-2.003-1.003-.052-2.322-.017-3.345-.016l-2.92-8.545-.847-2.489c-.204-.592-.475-1.314-.613-1.912l3.39-.008c.091.318.348.974.468 1.321l1.07 3.115c.932 2.74 1.863 5.62 2.848 8.33 1.197-3.316 2.23-6.723 3.418-10.045.319-.893.593-1.894.989-2.748z"/><path d="M24.65 5.41c1.132-.002 2.304.011 3.432-.009l2.953 8.682.882 2.564c.161.478.363 1.16.552 1.599l2.806-8.286A334 334 0 0 1 36.3 6.945c.137-.398.38-1.184.546-1.537 1.217 0 2.526.023 3.736-.005-.529 1.332-1.107 3.169-1.568 4.54l-2.526 7.417c-.383 1.1-.746 2.213-1.168 3.302-.774 2.001-1.962 2.782-3.945 3.338h-4.622l-.002-3.47a215 215 0 0 1 2.395 0c.71.003 1.9.118 2.437-.402.433-.421.608-1.214.843-1.758-1.115-.029-2.344.028-3.424-.023-.406-1.461-1.011-3.077-1.506-4.523a541 541 0 0 1-2.847-8.414Z"/></g><defs><clipPath id="a"><path fill="#fff" d="M0 0h104.531v24H0z"/></clipPath></defs></svg>