<svg xmlns="http://www.w3.org/2000/svg" width="92" height="24" fill="none"><path fill="#172A2D" d="M56.443 6.538c2.227-.265 4.826.562 5.645 2.845.426 1.188.38 2.56.397 3.804.035 2.552-.096 5.131.121 7.675.069.797.435 2.027.774 2.75-.594.059-2.437.057-3.049.018-.35-.68-.454-1.486-.542-2.233a6 6 0 0 0-.39.437c-2.679 3.44-9.773 2.582-8.324-2.83.925-2.302 3.258-2.913 5.36-3.692.868-.322 2.765-1.087 3.321-1.806.03-1.537-.074-2.942-.69-4.435-.767-1.854-3.959-2.263-4.673-.204-.347 1.003-.008 2.773.488 3.738-.02.038-.037.07-.055.109l.109.088c-.126.087-3.005-.063-3.38-.07-.161-1.855.22-3.61 1.613-4.93.962-.91 2.017-1.074 3.275-1.264M55.377 21.72a4.88 4.88 0 0 0 3.717-.708c.237-.156.46-.325.658-.53.01-.558.121-3.91-.101-4.151-.233-.253-.934-.21-1.254-.216l-.295-.002c-2.245.147-4.686.385-4.48 3.357.078 1.13.646 1.936 1.755 2.25M39.145 0c.114.166.046 8.485.05 9.542 1.093-1.349 1.913-2.537 3.741-2.831 5.036-.811 4.894 3.103 4.893 6.532l-.001 3.82c0 .802-.02 1.672.029 2.468a15 15 0 0 0 .39 2.596c.126.51.295.971.394 1.494-.48.046-2.683.045-3.144-.012-.419-1.517-.436-4.398-.437-5.977l.002-4.033c.002-.904.06-2.448-.173-3.263-.398-1.41-1.437-1.81-2.775-1.62-1.133.16-2.245.946-2.911 1.842-.019.32-.016.69-.008 1.016.075 3.204-.173 6.469.175 9.655.082.744.383 1.655.578 2.39-.856.08-1.83-.004-2.699.026-.497.018-1.091.006-1.585-.031.282-1.088.556-2.175.671-3.298.114-1.112.112-2.324.114-3.44l.002-4.082c0-2.64.037-5.296-.097-7.932-.035-.679-.185-1.483-.29-2.162-.052-.334-.35-1.06-.329-1.363.335-.19 1.403-.51 1.86-.7.344-.14 1.288-.577 1.55-.637M68.97 6.658c.099.035.092.312.092.417l-.001 2.918.001 5.715c-.002 1.238-.066 2.626.074 3.852.19 1.195.783 2.086 2.048 2.233 1.689.196 2.412-.471 3.623-1.432.043-1.167.017-2.732.014-3.918-.004-2.373.151-6.194-.722-8.374l.014-.009c.438-.287 2.954-1.23 3.48-1.341v7.697l-.002 3.533c0 1.164-.011 2.554.206 3.693.101.529.456 1.436.655 1.977-.539.042-2.483.059-2.998.002-.362-.638-.512-1.517-.57-2.241-1.505 1.87-3.266 2.88-5.698 2.41-3.022-.581-2.892-3.752-2.887-6.12.005-2.593.112-5.156-.243-7.714-.05-.357-.452-1.892-.424-2.044.01-.01 3.052-1.157 3.337-1.254Zm-51.989.04.177.01.06.057c-.009.55-.003 1.375-.003 1.897l-.003 6.966c0 1.362-.068 2.785.115 4.134.16 1.191.999 1.973 2.197 2.052 1.521.1 2.34-.503 3.433-1.455.016-.364.024-.746.02-1.112-.032-2.498.071-5.02-.053-7.515a15.7 15.7 0 0 0-.505-3.127c-.042-.162-.088-.394-.054-.558.238-.307 2.307-.887 2.76-1.14.12-.067.466-.165.602-.11-.06 2.444-.015 5.071-.015 7.53l-.003 3.333c0 2.403-.006 3.69.907 5.947-.293.04-2.764.112-3.02-.054-.311-.201-.506-1.676-.54-2.126-.266.218-.614.64-.858.884-2.449 2.494-7.38 2.222-7.675-1.967-.259-3.665.279-7.445-.441-11.07-.095-.475-.255-.912-.32-1.406.884-.183 2.315-.836 3.22-1.17ZM.01 1.828c1.822-.063 3.889-.017 5.726-.017 1.995 0 4.168-.044 6.15.016-.058.605-.1 4.892-.234 5.03-.314-.565-1.05-1.542-1.515-1.997C8.22 2.992 6.334 2.82 3.86 2.801l-.104 1.175-.072.044c-.017.336-.11.586-.109.954.01 2.244.004 4.49.008 6.734 0 .085.01.252.065.312.088.113.418.162.549.153.421-.03 1.519.059 1.824-.233l.05-.05c1.11-.02 2.526-.617 3.327-1.372.25-.235.693-.672.95-.825-.055.316-.037 1.85-.026 2.236.029 1.011-.037 2.077-.021 3.065-.15-.022-1.624-1.238-2.122-1.42-1.464-.538-2.937-.623-4.473-.614-.055.865-.008 1.994-.021 2.878-.036 2.353-.058 5.606.977 7.767-.465.064-1.134.036-1.615.04-1.012.01-2.036-.019-3.048-.008.827-2.597.836-3.995.835-6.675V8.378C.838 5.813.81 4.315.01 1.828m86.199 4.768c1.244-.171 3.178.05 4.337.57-.1 1.46-.388 2.859-.486 4.202-.227-.143-.407-.565-.565-.793-.604-.874-1.414-1.773-2.392-2.23-.917-.427-2.002-.547-2.962-.191-.474.176-.858.49-1.068.957-.208.466-.228 1.011-.134 1.507.613 3.21 6.605 3.104 7.947 6.7.446 1.194.378 2.646-.15 3.803-.547 1.198-1.63 2.075-2.85 2.53-1.282.477-3.07.481-4.323-.092-.905-.427-1.688-.88-2.343-1.66-.446-.531-.974-1.266-1.155-1.94.84-.563 1.728-1.215 2.608-1.698.347 1.286.93 2.753 1.997 3.613.738.604 1.69.883 2.637.773 1.47-.16 2.236-1.33 2.054-2.72-.297-2.28-3.279-3.103-5.008-3.999-1.65-.855-3.41-1.974-3.623-3.997-.218-2.035.8-3.83 2.67-4.657 1.004-.445 1.73-.55 2.809-.678M32.179.043l.102-.01c.173.156.093 1.388.09 1.712l.002 2.493v9.878c0 2.645-.217 7.145.836 9.496-.427.052-1.062.034-1.51.034l-2.463-.002a2 2 0 0 1-.359-.048c.072-.275.15-.558.23-.831.569-1.973.556-4.127.557-6.157v-3.981c0-2.205.03-4.448-.037-6.653-.027-.885-.13-1.888-.244-2.79-.068-.622-.38-1.245-.386-1.862 0-.029.322-.156.371-.172.421-.127.831-.292 1.246-.435.543-.188 1.04-.451 1.565-.672m-9.883 1.093a1.963 1.963 0 0 1 2.323 2.516 1.965 1.965 0 1 1-2.323-2.516m-5.251.001a1.966 1.966 0 1 1 .872 3.833 1.966 1.966 0 0 1-.872-3.833"/><path fill="#172A2D" d="m6.07 11.89-.05.05c-.304.292-1.402.203-1.823.233-.131.01-.461-.04-.549-.153-.054-.06-.065-.227-.065-.312-.004-2.245.002-4.49-.008-6.734-.001-.368.092-.617.11-.954l.07-.043a181 181 0 0 0-.062 7.997c.765.034 1.61-.018 2.378-.085Z"/></svg>