<svg xmlns="http://www.w3.org/2000/svg" width="139" height="24" fill="none"><path fill="#172A2D" d="M.013.188C.19.28 1.269 2.55 1.472 2.954l3.067 6.144c2.449 4.876 5.062 9.938 7.408 14.845.396-1.165.738-2.524 1.044-3.721 1.078-4.231 2.377-8.448 3.412-12.685.443.335 1.268.787 1.768 1.08l3.102 1.818c.958.575 2.702 1.237 2.666 2.541-.084 3.015-.016 6.033-.023 9.05-.004 1.426-.303 1.93-1.806 1.93-4.575 0-9.15-.005-13.726-.002l-4.728.003c-1.546 0-3.698.453-3.634-1.6C.049 21.501 0 20.56 0 19.692v-4.848L.013.187Z"/><path fill="#172A2D" d="M.118.044c2.185-.1 5.34 0 7.587 0L23.927.038 20.223 3.74c-1.25 1.268-2.565 2.527-3.79 3.81-1.094-.416-2.538-1.124-3.635-1.63L6.431 2.986 2.096 1.015C1.662.814.47.292.118.044"/><path fill="#172A2D" fill-rule="evenodd" d="M109.136 10.232c.598-.014 1.692-.095 2.226.104.204.24.182.813.178 1.138-.053 4.07.086 8.193-.021 12.259-.462.062-2.027.125-2.431-.045-.124-.17-.118-.547-.132-.772-1.531 1.154-3.437 1.335-5.174.552a4 4 0 0 1-.62-.346 5.06 5.06 0 0 1-2.143-3.232 4.9 4.9 0 0 1 .799-3.706c1.748-2.549 4.731-2.78 7.188-1.096 0-.811-.093-4.37.13-4.855Zm-.213 8.25a2.686 2.686 0 0 0-5.278.998 2.687 2.687 0 0 0 5.278-.997Z" clip-rule="evenodd"/><path fill="#172A2D" d="M34.784 10.107c1.98-.052 3.718.624 5.114 2.045.263.267.806.799.8 1.162-.127.334-1.643 1.194-2.033 1.43-.84-.907-.949-1.47-2.35-2.007a3.7 3.7 0 0 0-2.875.081c-1.094.487-1.902 1.389-2.325 2.502a4.82 4.82 0 0 0 .122 3.712c1.11 2.438 4.232 3.443 6.296 1.484.658-.626.956-1.296 1.266-2.135-1.364-.07-2.81.043-4.174-.052a12 12 0 0 1 .009-2.375c.344-.147 6.484-.151 6.859-.014.167.168.185.366.2.593.252 3.795-2.373 7.165-6.29 7.398a6.88 6.88 0 0 1-5.058-1.739 6.88 6.88 0 0 1-2.305-4.776 7 7 0 0 1 1.79-5.066c1.349-1.5 2.99-2.138 4.954-2.243"/><path fill="#172A2D" fill-rule="evenodd" d="M93.747 14.056c1.63-.175 2.376.16 3.735.973l.001-.27c.004-.296-.007-.386.193-.58.286-.07 2.32-.185 2.312.11-.09 2.885.32 6.638.002 9.458l-.117.01c-.5.026-1.85.156-2.25-.143-.16-.119-.134-.387-.145-.595l-.088-.027-.453.284c-.564.3-1.08.498-1.712.601a4.92 4.92 0 0 1-3.671-.84c-3.632-2.619-2.326-8.273 2.193-8.98Zm3.683 4.418a2.684 2.684 0 0 0-5.272 1.01 2.685 2.685 0 0 0 5.272-1.01m-43.34-4.478a5.005 5.005 0 0 1 5.594 4.366 5 5 0 0 1-4.4 5.563 5.005 5.005 0 0 1-5.542-4.372 5 5 0 0 1 4.349-5.557Zm.592 2.211c-3.24.485-2.945 5.225.068 5.458 3.257-.474 2.833-5.356-.068-5.458m10.412-2.223q.464-.045.93-.01a4.92 4.92 0 0 1 3.34 1.66c1.252 1.431 1.326 2.716 1.211 4.476-2.379.034-4.806-.006-7.195.013 1.048 1.713 2.523 2.056 4.125.779l1.017.419c.333.136.785.267.934.592a.5.5 0 0 1-.112.39c-1.571 1.892-4.649 2.135-6.608.76a5.04 5.04 0 0 1-2.047-3.237 5.04 5.04 0 0 1 .872-3.788c.896-1.254 2.058-1.81 3.533-2.054m.297 2.285c-1.155.262-1.756.747-2.187 1.867h2.708l2.136-.006c-.546-1.223-1.239-1.922-2.657-1.861M117.3 13.96a4.87 4.87 0 0 1 3.515 1.315c1.093 1.013 1.625 2.303 1.681 3.78.018.461-.051 1.012-.622 1.043-.747.042-1.499.024-2.248.022a378 378 0 0 0-4.426 0c.999 1.641 2.566 2.12 4.09.787.407.133.815.317 1.209.487.316.127.609.21.773.51-.002.174-.005.269-.126.415-1.575 1.88-4.658 2.127-6.62.72a5.04 5.04 0 0 1-2.029-3.27 5 5 0 0 1 .877-3.72c.913-1.264 2.047-1.825 3.545-2.065q.191-.015.381-.024m-.064 2.307c-1.277.285-1.682.7-2.203 1.872l2.713-.004 2.144.001c-.596-1.202-1.215-1.924-2.654-1.869m-34.188-2.28c.427-.038.738-.04 1.167.013a4.93 4.93 0 0 1 3.265 1.861c1.046 1.342 1.208 2.627 1.006 4.243-2.34.065-4.835-.005-7.203.02 1.056 1.66 2.561 2.097 4.13.772.304.103.727.297 1.032.425.37.151.804.245.936.648-.034.917-2.175 1.784-2.987 1.91a5.16 5.16 0 0 1-3.838-.902 4.95 4.95 0 0 1-1.937-3.2 5.07 5.07 0 0 1 .92-3.797c.902-1.22 2.05-1.77 3.51-1.993Zm.318 2.226c-1.205.272-1.713.734-2.175 1.872l2.828-.004 2.019-.001c-.573-1.216-1.238-1.926-2.672-1.867" clip-rule="evenodd"/><path fill="#172A2D" d="M134.21 13.98c.824-.123 3.906.28 4.039 1.28-.14.434-.58 1.278-.905 1.62-.083.088-.166.116-.282.083-.231-.067-.396-.156-.626-.25-.66-.272-1.807-.754-2.47-.31-.097.066-.235.405-.207.493.34 1.055 2.211 1.131 3.101 1.6.401.167.756.367 1.075.666 1.063.994.821 2.818-.139 3.803-.823.846-1.951.963-3.079.981-.717-.062-3.587-.513-3.82-1.606.062-.477.673-1.182.925-1.558.148-.319.679-.031.862.145.58.557 3.518 1.365 3.425-.104-.597-1.108-5.262-.899-4.909-3.913.226-1.937 1.207-2.598 3.01-2.93m-59.096-3.746c.523-.01 2.113-.118 2.472.16.158.531.139 5.15.102 5.837-.056 1.05.152 6.897-.124 7.518-.722.064-1.842.043-2.566-.004-.03-.46-.06-2.756-.025-3.175.116-1.363-.217-9.793.14-10.336Zm53.265 3.746c.608-.043 2.395-.015 2.667.614.004.244-.093.346-.176.539-1.084 2.516-1.391.605-3.232 1.309-1.795.687-1.709 2.232-1.693 3.742l.022 2.203c.003.367.036.964-.122 1.286-.129.127-.359.106-.545.11-.426.006-1.535.063-1.871-.108-.175-.523-.137-9.218.031-9.44.536-.21 1.404-.094 1.982-.103.241-.004.31.06.464.218.098.24.047.726.034 1.007.823-.905 1.249-1.163 2.439-1.377m-80.78.005c.527-.087 2.319.053 2.632.472.18.455-.836 2.019-.96 1.997-3.264-.56-4.118.631-4.096 3.755l.023 2.133c.005.401.03.913-.067 1.295-.196.16-.235.119-.517.146-.47.007-1.566.07-1.952-.117-.13-.253-.133-9.146.003-9.418.457-.225 1.943-.118 2.5-.082l.02 1.206c.82-.9 1.235-1.18 2.414-1.387m24.245.149c.677-.016 1.57-.034 2.225.058.136 2.264.032 6.895-.036 9.403-.002.106-.128.142-.218.181-.435.007-1.878.086-2.205-.104-.487-1.473.158-7.098-.127-8.93-.053-.342.055-.493.361-.608m-.146-3.903c1.94.008 2.695-.533 2.359 1.998-.01.08-.147.19-.207.25-.516.002-1.706.174-2.1-.092-.403-.272-.35-1.794-.052-2.156"/></svg>