<svg xmlns="http://www.w3.org/2000/svg" width="53" height="24" fill="none"><g fill="#172A2D" clip-path="url(#a)"><path d="M12.229 4.107H14.6v13.981l2.438-9.105h2.604l-1.159 3.945.903 1.564 2.6 4.512h-2.7c-.185-.312-.388-.707-.566-1.03l-1.118-2.038-.899 3.068h-4.474zm11.306 4.876h2.368v10.021h-2.368V8.985Zm-16.628 0h2.365v10.021H6.908V8.985Zm.939-5.056A1.556 1.556 0 1 1 8.334 7a1.556 1.556 0 0 1-.488-3.073m16.631 0a1.556 1.556 0 1 1 .48 3.074 1.556 1.556 0 0 1-.48-3.074m14.662-.022a1.556 1.556 0 1 1 .492 3.072 1.556 1.556 0 0 1-.492-3.072"/><path d="M36.21 0h.604c.518.074.913.152 1.397.365v2.274c-.954-.534-2.16-.666-2.58.609-.084.257-.147.52-.217.782l-.303 1.137c-.337 1.259-.705 2.559-1.022 3.82h6.462v10.012h-2.344v-7.931h-4.676l-1.978 7.387-.537 2.005c-.155.584-.278 1.154-.54 1.703-.474.995-1.202 1.575-2.262 1.837H26.83a6 6 0 0 1-.923-.277V21.46q.325.166.674.265c.401.112.84.133 1.213-.08.605-.348.716-1.135.882-1.755l.512-1.915 1.85-6.906h-2.722c.194-.664.373-1.407.551-2.082h2.729c.357-1.404.756-2.833 1.131-4.235l.383-1.43c.104-.388.195-.761.338-1.137q.178-.467.472-.872C34.528.475 35.22.157 36.21 0m9.52 10.31q.084-.138.178-.273c1.203-1.717 4.149-1.792 5.485-.204.521.62.79 1.388.874 2.187.014.125.022.25.043.375v6.61h-2.397v-4.273l.002-1.213c0-.35.014-.685-.046-1.028-.19-1.08-.89-1.614-1.968-1.628-1.035-.047-1.88.697-2.044 1.712-.115.711-.066 1.62-.065 2.362v4.068H43.4V8.983h2.33zM-.001 4.107h2.385v10.331c0 .508-.053 1.134.115 1.606.33.93 1.414.928 2.208.738v2.026c-.892.313-2.053.259-2.905-.157-.768-.374-1.299-.993-1.58-1.797-.141-.408-.157-.656-.223-1.067z"/></g><defs><clipPath id="a"><path fill="#fff" d="M0 0h52.31v24H0z"/></clipPath></defs></svg>