<svg xmlns="http://www.w3.org/2000/svg" width="66" height="24" fill="none"><g fill="#172A2D" clip-path="url(#a)"><path d="M19.168 10.006c.169.46.268.865.32 1.354a5.4 5.4 0 0 1-1.156 3.99 5.35 5.35 0 0 1-3.6 1.938 5.44 5.44 0 0 1-3.998-1.173 5.3 5.3 0 0 1-1.927-3.624 5.4 5.4 0 0 1 1.185-3.973 5.32 5.32 0 0 1 3.613-1.911c1.618-.157 2.932.327 4.166 1.345l1.166-1.164h3.442c-.515.517-1.045 1.037-1.554 1.559l-1.657 1.66Zm-3.038-.412c-1.962-1.533-4.804-.45-4.972 2.109l.001.376c.053 1.693 1.267 2.903 2.963 2.922l-2.159-2.164c.462-.124 1.41-1.419 1.808-1.634l.38.373zm-1.955 5.412c1.785-.058 2.876-1.225 2.972-2.98-.954.955-2.053 2.006-2.972 2.98"/><path d="M11.158 11.704c.29-.203 1.392-1.45 1.552-1.468.24.09.407.278.573.464-.112-.03-.068-.033-.176.013-.064.106-.073.206-.143.294-.324.408-.775.823-1.174 1.162-.084.072-.223.088-.33.167-.101-.05-.217-.175-.3-.256l-.002-.377Z"/><path d="M11.459 12.336c.107-.08.246-.095.331-.167.398-.339.85-.754 1.174-1.162.07-.088.079-.188.143-.294.108-.046.064-.043.176-.012.075.078.434.434.488.503-.398.215-1.346 1.51-1.807 1.633z"/><path d="M18.937 6.788h3.442c-.515.517-1.045 1.038-1.553 1.56l-1.658 1.659-2.02 2.019c-.954.956-2.054 2.006-2.973 2.98l-.052-.005-2.16-2.164c.462-.124 1.41-1.418 1.809-1.633l.379.373 1.979-1.982 1.642-1.642zm-18.552 0 3.742-.003c1.027.004 2.049.183 2.775.963 1.119 1.201 1.043 2.89-.097 4.009 1.364.925 1.615 2.57.785 3.953-.98 1.531-2.675 1.399-4.233 1.4H.386zm2.375 8.098c.504.004 1.007.01 1.51.01.465 0 .784.03 1.155-.282.415-.532.343-1.48-.394-1.63-.627-.127-1.599-.055-2.27-.047v1.95Zm0-4.066 1.19.008c.423.001.81.038 1.138-.277.207-.284.262-.498.207-.855-.147-.959-1.796-.692-2.535-.684z"/><path d="m22.379 6.788 1.763-.003c1.312 0 2.288.006 3.319 1.027a3.52 3.52 0 0 1 1.042 2.507 3.3 3.3 0 0 1-.989 2.347c-.24.24-.594.505-.905.657.705 1.217 1.527 2.561 2.191 3.786l-2.55.001c-.641-1.119-1.287-2.28-1.942-3.387l-1.103.002-.001 3.384h-2.377c0-2.902.032-5.865-.002-8.762.509-.521 1.039-1.042 1.554-1.559m.826 4.856c.775.007 2.003.191 2.576-.37l.02-.02c.462-.618.463-1.513-.155-1.998-.486-.38-1.807-.251-2.44-.245zm11.026-5.041c.398-.06 1.183-.002 1.578.08 1.486.307 2.58 1.016 3.425 2.261-.664.393-1.346.777-2.016 1.162-.728-1.12-2.343-1.456-3.556-1.047a2.84 2.84 0 0 0-1.663 1.461 3.4 3.4 0 0 0-.148 2.54c.246.71.768 1.292 1.448 1.612 1.129.54 2.967.483 3.813-.539.199-.24.3-.432.43-.709h-2.764v-2.069l.865-.004 4.319-.002c.008 1.6-.02 2.919-1.091 4.223-1.84 2.24-5.513 2.254-7.668.478a5.2 5.2 0 0 1-1.874-3.519 5.44 5.44 0 0 1 1.175-3.984c.956-1.162 2.241-1.8 3.727-1.944m25.533-.001c.404-.066 1.23.005 1.632.091C62.83 7 63.952 7.726 64.76 8.945l-2.014 1.158c-.818-1.148-2.414-1.496-3.696-.995a2.84 2.84 0 0 0-1.58 1.534c-.654 1.504-.105 3.488 1.49 4.09 1.52.574 3.406.341 4.1-1.308h-2.756v-2.068l.789-.005 4.394-.003c.015 1.595-.02 2.92-1.088 4.222-1.837 2.239-5.504 2.256-7.662.486a5.22 5.22 0 0 1-1.883-3.537 5.43 5.43 0 0 1 1.194-3.994c.948-1.148 2.246-1.784 3.716-1.923m-8.618.185h2.37l-.003 10.322h-1.778l-3.965-5.578.001 5.578h-2.368c-.034-1.198-.004-2.544-.004-3.751l.004-6.57h1.78l3.963 5.579zm-9.864 0h2.365V17.11H41.28c-.042-3.404-.003-6.911 0-10.322Zm7.262 11.489a1.659 1.659 0 1 1 .243 3.31 1.659 1.659 0 0 1-.243-3.31m.165 2.586A.931.931 0 1 0 48.622 19a.931.931 0 0 0 .087 1.86Zm4.457-2.526.74-.001-.002 3.19c-.232-.008-.505-.003-.74-.004v-1.827q-.42.702-.855 1.393c-.268-.383-.602-.966-.852-1.376v1.813l-.737-.002c-.027-1.02-.004-2.155-.004-3.184l.73-.002q.44.7.861 1.412c.248-.444.59-.972.86-1.412Zm8.458.002.744-.003v3.183l-.56.004c-.363-.548-.822-1.16-1.208-1.702v1.703l-.736-.002c-.024-1.026-.002-2.15-.002-3.184l.553-.002 1.21 1.702zm-4.035-.002h.934l1.08 3.183-.805.003c-.036-.122-.11-.447-.209-.496l-1.111.002-.157.495-.808-.003c.284-.969.745-2.202 1.076-3.184m.108 1.99.344.003c.107 0 .265.012.355-.031-.03-.144-.278-.95-.34-1.079zM3.058 2.432l.738-.001.001 1.219h.984V2.433l.738-.002a291 291 0 0 1-.006 3.191l-.73-.002-.001-1.256-.985.002V5.62H3.06c-.024-1.03-.002-2.152-.002-3.189ZM54.427 18.34c.788-.009 2.025-.206 2.288.795.076.286.035.59-.114.845-.198.334-.443.45-.8.542l-.63.004v.994l-.743.002zm1.352 1.48c.174-.14.353-.369.18-.59-.172-.222-.375-.204-.628-.2l-.115.017c-.098.142-.041.593-.044.786.132 0 .495.005.607-.013M6.046 2.433c.647-.013 1.335-.002 1.986-.002l-.002.714-1.243.004.002.506H7.92v.71c-.18-.004-.995-.035-1.125.032l-.01.067.002.451h1.266v.706q-1.004-.006-2.007 0zm39.377 15.843c.652-.021 1.068.24 1.456.737l-.636.374-.02-.024c-.187-.222-.371-.344-.67-.367a.9.9 0 0 0-.66.217c-.877.773.163 2.374 1.349 1.29l.078.021.562.328-.02.027c-.299.385-.667.642-1.159.703a1.66 1.66 0 0 1-1.24-.346 1.66 1.66 0 0 1-.607-1.112c-.114-1.049.55-1.742 1.567-1.848m17.198.064.833-.004c.195.346.423.846.602 1.212l.605-1.211h.834c-.215.426-.482.891-.713 1.313-.465.833-.372.882-.36 1.87l-.732.002c-.02-.775.122-1.079-.291-1.766-.262-.437-.532-.963-.778-1.415ZM.385 2.433 2.76 2.43l-.003.714-.823.003c.008.543.002 1.104.003 1.649v.823h-.739V3.147H.387l-.001-.713Z"/></g><defs><clipPath id="a"><path fill="#fff" d="M0 0h66v24H0z"/></clipPath></defs></svg>