<svg xmlns="http://www.w3.org/2000/svg" width="44" height="24" fill="none"><g clip-path="url(#a)"><path fill="#172A2D" d="M14.575 13.592q0-1.222.526-1.817.525-.594 1.673-.595.17 0 .255.01v1.042a2 2 0 0 0-.255-.01q-.595 0-.823.297-.23.297-.229 1.073v.775h1.169v.989h-1.169v4.324h-1.158v-4.324h-.457v-.989h.468zm3.775 4.239q.201.383.542.584.339.202.786.202.446 0 .786-.212.351-.213.542-.58a1.8 1.8 0 0 0 .191-.844q0-.446-.191-.797a1.46 1.46 0 0 0-.542-.573 1.5 1.5 0 0 0-.786-.202q-.446 0-.797.202-.36.201-.552.568a1.7 1.7 0 0 0-.192.802q0 .478.213.85m-1.052-2.167q.34-.616.924-.967.585-.35 1.286-.35.478 0 .914.164.435.165.765.473v-.617h1.136v5.313h-1.136v-.659a2.4 2.4 0 0 1-.765.489q-.425.17-.914.17-.712 0-1.286-.361a2.43 2.43 0 0 1-.924-.967 2.9 2.9 0 0 1-.33-1.381q0-.712.33-1.307m9.764 2.422.531.893q-.34.329-.84.515t-1.04.186q-.755 0-1.387-.361a2.7 2.7 0 0 1-.999-.978 2.6 2.6 0 0 1-.366-1.36q0-.712.366-1.312.367-.6.994-.95a2.8 2.8 0 0 1 1.392-.351q.541 0 1.046.19.505.192.834.521l-.531.86a1.7 1.7 0 0 0-.563-.392 1.9 1.9 0 0 0-.712-.128q-.52 0-.871.213a1.75 1.75 0 0 0-.585.59q-.212.355-.212.76 0 .456.212.85.225.381.6.594.378.213.856.213.786 0 1.275-.553m2.422-3.719v5.313h-1.158v-5.313zm-1.052-1.524a.664.664 0 0 1 .946 0 .64.64 0 0 1 .202.473.65.65 0 0 1-.202.478.65.65 0 0 1-.478.202.64.64 0 0 1-.473-.202.66.66 0 0 1-.197-.478.64.64 0 0 1 .202-.473m3.145-1.663v8.5H30.43v-8.5zm2.103 3.187v5.313h-1.158v-5.313zm-1.051-1.524a.65.65 0 0 1 .467-.197q.276 0 .478.197a.64.64 0 0 1 .202.473.65.65 0 0 1-.202.478.65.65 0 0 1-.478.202.64.64 0 0 1-.473-.202.66.66 0 0 1-.196-.478q0-.276.202-.473m2.231-1.663h1.158v3.188h1.148v.988h-1.148v1.912q0 .776.229 1.073.228.297.823.297.18 0 .255-.01v1.041q-.085.01-.255.01-1.116 0-1.657-.562-.542-.564-.542-1.7v-2.061h-.457v-.989h.446zm4.388 3.188 1.669 3.527 1.508-3.527H43.7l-3.187 7.437h-1.264l1.04-2.625-2.326-4.812z"/><mask id="b" width="22" height="22" x="0" y="0" maskUnits="userSpaceOnUse" style="mask-type:luminance"><path fill="#fff" d="M10.082 13.938a1.743 1.743 0 0 0-1.74 1.85q.007.097.008.194a1.743 1.743 0 0 0 3.036 1.14q.064-.07.132-.136a1.743 1.743 0 0 0-.895-2.973l-.146-.03a1.7 1.7 0 0 0-.395-.045m3.234 7.528a2.61 2.61 0 0 1-2.578-2.247 1.743 1.743 0 0 0-3.15-.77 4.18 4.18 0 0 1-3.41 1.772 4.177 4.177 0 0 1-4.172-4.173 4.177 4.177 0 0 1 5.72-3.874 1.74 1.74 0 0 0 1.56-.132c.47-.288.776-.781.825-1.33a3.094 3.094 0 0 1 3.34-2.785 1.743 1.743 0 0 0 1.793-2.332A4.177 4.177 0 0 1 17.166 0c2.3 0 4.172 1.872 4.172 4.172a4.177 4.177 0 0 1-5.084 4.073 1.74 1.74 0 0 0-2.08 2.078 3.07 3.07 0 0 1-.998 2.994 1.743 1.743 0 0 0 .737 3.015 2.625 2.625 0 0 1 2.003 2.532 2.604 2.604 0 0 1-2.601 2.602Z"/></mask><g mask="url(#b)"><path fill="#172A2D" d="M13.18 21.467v-.006h-.105v-.006h-.043v-.007h-.043v-.006h-.05v-.006h-.043v-.006h-.043v-.006h-.03v-.006h-.031v-.006h-.025v-.007h-.024V21.4h-.025v-.006h-.03v-.006h-.025v-.006h-.025v-.006h-.024v-.007h-.025v-.006h-.019v-.006h-.018v-.006h-.018v-.006h-.019v-.006h-.018v-.006h-.019v-.007h-.018v-.006h-.019v-.006h-.018v-.006h-.018v-.006h-.019v-.006h-.012v-.007h-.013v-.006h-.018v-.006h-.012v-.006h-.013v-.006h-.012v-.006h-.018v-.006h-.013v-.006h-.012v-.007h-.018v-.006h-.013v-.006h-.012v-.006h-.018v-.006h-.013v-.006h-.012v-.006h-.012v-.007h-.013v-.006h-.012v-.006h-.012v-.006h-.006v-.006h-.013v-.006h-.012v-.007h-.012v-.006h-.013v-.006h-.012v-.006h-.006v-.006h-.012v-.006h-.012v-.007h-.013v-.006h-.012v-.006h-.012v-.006h-.007v-.006h-.012v-.006h-.012v-.006h-.006v-.006h-.013v-.007h-.006v-.006h-.012v-.006h-.006v-.006h-.013v-.006H11.9v-.006h-.012v-.006h-.006v-.007h-.012v-.006h-.006v-.006h-.013v-.006h-.006v-.006h-.012V21h-.006v-.007h-.013v-.006h-.006v-.006h-.012v-.006h-.006v-.006h-.013v-.006h-.006v-.006h-.006v-.007h-.006v-.006h-.012v-.006h-.006v-.006h-.007v-.006h-.006v-.006h-.012v-.007h-.006v-.006h-.006v-.006h-.013v-.006h-.006v-.006h-.006v-.006h-.006v-.006h-.012v-.006h-.006v-.007h-.007v-.006h-.006v-.006h-.012v-.006h-.006v-.006h-.006v-.006h-.007v-.006H11.6v-.007h-.006v-.006h-.006v-.006h-.006v-.006h-.006v-.006h-.007v-.006h-.006v-.007h-.006v-.006h-.006v-.006h-.006v-.006h-.006v-.006h-.007v-.006h-.006v-.007h-.006v-.006h-.006v-.006h-.006v-.006H11.5v-.006h-.006v-.006h-.006v-.006h-.007v-.006h-.012v-.007h-.006v-.006h-.006v-.006h-.006v-.006h-.007v-.006h-.006v-.006h-.006v-.006h-.006v-.007h-.006v-.012h-.006v-.006h-.006v-.006h-.007v-.006h-.006v-.007h-.006v-.006h-.006v-.006h-.006v-.012h-.006v-.006h-.006v-.006h-.007v-.007h-.006v-.006h-.006v-.006h-.006v-.006h-.006v-.006h-.006v-.012h-.007v-.007h-.006v-.006h-.006v-.006h-.006v-.006h-.006v-.006h-.006v-.006h-.006v-.013h-.006v-.006h-.007v-.006h-.006v-.012h-.006v-.006h-.006v-.006h-.006v-.013h-.006v-.006h-.007v-.006h-.006v-.012h-.006v-.007h-.006v-.012h-.006v-.006h-.006v-.006H11.2v-.013h-.007v-.006h-.006v-.006h-.006v-.012h-.006v-.006h-.006v-.006h-.006v-.013h-.007v-.006h-.006v-.012h-.006v-.006h-.006v-.012h-.006v-.007h-.006v-.012h-.006v-.012h-.006v-.006h-.007v-.013h-.006v-.012h-.006v-.006h-.006v-.012h-.006v-.013h-.006v-.006h-.007v-.012h-.006v-.012h-.006v-.007h-.006v-.012h-.006v-.006h-.006v-.012h-.006v-.013h-.007v-.012h-.006v-.012h-.006v-.012h-.006v-.013h-.006v-.012h-.006v-.012h-.006v-.013h-.007v-.012h-.006v-.012h-.006v-.013h-.006v-.012h-.006v-.012h-.006v-.012h-.007v-.013h-.006v-.012h-.006v-.012h-.006v-.013h-.006v-.018h-.006v-.012h-.006v-.019h-.006v-.018h-.007v-.013h-.006v-.018h-.006v-.012h-.006v-.019h-.006v-.018h-.006v-.012h-.007v-.019h-.006v-.012h-.006v-.019h-.006v-.018h-.006v-.019h-.006v-.024h-.006v-.025h-.007v-.018h-.006v-.025h-.006v-.018H10.8v-.025h-.006v-.018h-.006v-.025h-.007v-.018h-.006v-.031h-.006v-.03h-.006v-.032h-.006v-.03h-.006v-.031h-.006v-.03h-.006v-.05h-.007v-.043h-.006v-.03h-.006v-.038h-.006v-.03h-.006v-.025h-.006v-.024h-.007v-.025h-.006v-.025h-.006v-.018h-.006v-.025h-.006v-.018h-.006v-.019h-.006v-.018h-.007v-.012h-.006v-.019h-.006v-.018h-.006v-.019h-.006v-.012h-.006v-.018h-.006v-.013h-.007v-.012h-.006v-.018h-.006v-.013h-.006v-.012h-.006v-.012h-.006V18.7h-.007v-.012h-.006v-.012h-.006v-.012h-.006v-.013h-.006v-.012h-.006v-.012h-.006v-.013h-.006v-.012h-.007v-.012h-.006v-.006h-.006v-.013h-.006v-.006h-.006v-.012h-.006v-.012h-.007v-.007h-.006v-.012h-.006v-.012h-.006v-.006h-.006v-.013h-.006v-.006h-.006v-.012h-.007v-.006h-.006v-.006h-.006v-.013h-.006v-.006h-.006v-.012h-.006v-.006h-.007v-.006H10.4v-.013h-.006V18.4h-.006v-.012h-.006v-.006h-.006v-.006h-.006v-.007h-.006v-.006h-.007v-.012h-.006v-.006h-.006v-.006h-.006v-.006h-.006v-.007h-.006v-.012h-.007v-.006h-.006v-.006h-.006v-.006h-.006v-.007h-.006v-.006h-.006v-.006h-.006v-.006h-.007v-.006h-.006v-.006h-.006v-.006h-.006v-.006h-.006v-.007h-.006v-.006h-.006v-.012h-.007v-.006h-.006v-.006h-.006v-.006h-.006v-.007h-.006v-.006h-.013v-.006h-.006v-.006h-.006v-.006h-.006v-.006h-.006v-.007h-.006v-.006h-.006v-.006h-.006v-.006h-.013v-.006h-.006v-.006h-.006v-.007h-.006v-.006h-.006v-.006h-.007v-.006H10.1v-.006h-.006v-.006h-.006v-.006h-.012v-.006h-.007v-.007h-.006v-.006h-.012v-.006h-.006v-.006h-.006v-.006h-.007v-.006h-.012v-.006h-.006v-.007h-.012v-.006h-.006v-.006h-.013v-.006h-.006v-.006h-.012V18h-.006v-.007h-.013v-.006H9.94v-.006h-.012v-.006h-.006v-.006H9.91v-.006h-.013v-.006H9.89v-.007h-.012v-.006h-.012v-.006h-.013v-.006h-.012v-.006h-.012v-.006h-.007v-.007H9.81v-.006h-.012v-.006h-.012v-.006h-.013v-.006h-.012v-.006h-.012v-.006H9.73v-.006h-.012v-.007h-.012v-.006h-.013v-.006h-.012v-.006h-.018v-.006h-.019v-.006h-.012v-.006h-.019v-.007h-.018v-.006h-.012v-.006h-.019v-.006h-.018v-.006h-.019v-.006h-.024v-.007h-.019v-.006h-.018v-.006H9.44v-.006h-.024v-.006h-.025v-.006h-.037v-.007h-.037v-.006h-.036v-.006h-.037v-.006h-.037v-.006h-.08v-.006h-.234v.006h-.08v.006h-.037v.006H8.74v.006h-.03v.006h-.037v.007h-.03v.006h-.038v.006h-.018v.006h-.025v.006h-.018v.006h-.019v.007h-.018v.006h-.025v.006h-.018v.006h-.019v.006h-.018v.006h-.025v.006H8.39v.007h-.012v.006h-.012v.006h-.019v.006h-.012v.006h-.013v.006H8.31v.006h-.018v.007h-.013v.006h-.012v.006H8.25v.006h-.013v.006h-.012v.006h-.012v.006H8.2v.007h-.007v.006h-.012v.006H8.17v.006h-.006v.006H8.15v.006h-.012v.007h-.012v.006H8.12v.006h-.013v.006h-.012v.006H8.09v.006h-.012v.006h-.013V18h-.006v.006h-.012v.006h-.012v.006h-.007v.006h-.006v.006H8.01v.006h-.006v.007h-.006v.006H7.99v.006h-.013v.006h-.006v.006h-.006v.006h-.012v.006h-.006v.007H7.94v.006h-.01v.006h-.006v.006h-.006v.006h-.013v.006h-.006v.006h-.006v.007h-.006v.006h-.012v.006h-.006v.006H7.86v.006h-.006v.006H7.85v.007h-.006v.006h-.006v.006H7.83v.006h-.006v.006h-.007v.006h-.006v.006h-.006v.007H7.8v.006h-.006v.006h-.006v.006h-.006v.006h-.007v.006H7.77v.006h-.006v.007h-.006v.006H7.75v.006h-.006v.006h-.007v.006h-.006v.006h-.006v.006H7.72v.007h-.006v.006h-.006v.006h-.006v.006h-.007v.012H7.69v.007h-.006v.006h-.006v.006h-.006v.006h-.006v.012H7.66v.006h-.007v.007h-.006v.006H7.64v.006h-.006v.012h-.006v.006h-.006v.006h-.006v.007h-.007v.012h-.006v.006h-.006v.012h-.006v.006h-.006v.013h-.006v.006h-.006v.006h-.007v.012H7.56v.006h-.006v.013h-.006v.006h-.006v.006h-.006v.006h-.007v.013h-.006v.006h-.006v.006h-.006v.012h-.006v.006h-.006v.006h-.006v.013h-.007v.006H7.48v.006h-.006v.006h-.006v.012h-.006v.007h-.006v.006H7.45v.012h-.007v.006h-.006v.006h-.006v.006h-.006v.013h-.006v.006h-.006v.006h-.006v.006H7.4v.006h-.006v.007h-.006v.012h-.006v.006h-.006v.006H7.37v.006h-.007v.006h-.006v.007h-.006v.012h-.006v.006h-.006v.006h-.006v.006h-.006v.006H7.32v.007h-.006v.012h-.006v.006h-.006v.006h-.006v.006H7.29v.006h-.006v.013h-.007v.006h-.006v.006h-.006v.006H7.26v.006h-.006v.006h-.006v.007H7.24v.006h-.007v.006h-.006v.006h-.006v.006h-.006v.006H7.21v.007h-.006v.006h-.006v.006H7.19v.006h-.006v.006H7.18v.006h-.006v.006h-.006v.007H7.16v.006h-.007v.006h-.006v.012h-.006v.006h-.006v.006H7.13v.007h-.006v.006h-.006v.006H7.11v.006h-.006v.006H7.1v.006h-.006v.006h-.006v.007H7.08v.006h-.013v.006h-.006v.006h-.006v.006H7.05v.006h-.006v.007h-.006v.006h-.006v.006h-.007v.006H7.02v.006h-.006v.006h-.006v.006H7v.007h-.013v.006h-.006v.006h-.006v.006H6.97v.006h-.006v.006h-.006v.006h-.006v.007h-.007v.006H6.94v.006h-.006v.006h-.006v.006h-.006v.006H6.91v.006h-.007v.007h-.006v.006H6.89v.006h-.012v.006h-.006v.006h-.006v.006h-.007v.006h-.006v.007h-.012v.006h-.006v.006h-.006v.006h-.006v.006H6.81v.006h-.006v.007h-.006v.006h-.006v.006h-.006v.006h-.013v.006h-.006v.006h-.006v.006h-.006v.007h-.012v.006h-.007v.006H6.73v.006h-.006v.006h-.012v.006h-.006v.006H6.7v.007h-.013v.006h-.006v.006H6.67v.006h-.006v.006h-.006v.006h-.013v.006h-.006v.007h-.006v.006H6.62v.006h-.007v.006h-.012v.006h-.006v.006h-.006v.007h-.012v.006H6.57v.006h-.006v.006h-.012v.006h-.006v.006h-.012v.006h-.007v.007h-.006v.006H6.51v.006h-.012v.006H6.49v.006h-.013v.006h-.006v.006H6.46v.007h-.006v.006H6.44v.006h-.01v.006h-.006v.006H6.41v.006h-.007v.006h-.012v.007h-.006v.006h-.012v.006H6.36v.006h-.006v.006h-.012v.006h-.006v.006h-.012v.007h-.007v.006h-.012v.006h-.012v.006h-.012v.006h-.013v.006h-.006v.007H6.25v.006h-.013v.006h-.012v.006H6.22v.006h-.012v.006h-.013v.006h-.012v.007h-.012v.006h-.006v.006h-.013v.006H6.14v.006h-.012v.006h-.012v.006h-.007v.007h-.012v.006h-.012v.006h-.012v.006H6.06v.006h-.018v.006h-.013v.006h-.012v.007h-.012v.006h-.012v.006H5.98v.006h-.012v.006h-.012v.006h-.013v.007h-.012v.006H5.92v.006h-.012v.006h-.013v.006h-.012v.006h-.019v.006h-.012v.007h-.018v.006H5.82v.006h-.018v.006H5.79v.006h-.013v.006H5.76v.006h-.012v.007h-.019v.006h-.012v.006h-.018v.006h-.013v.006h-.012v.006h-.019v.006h-.012v.007h-.018v.006h-.019v.006h-.018v.006h-.019v.006H5.55v.006h-.018v.006h-.019v.007h-.018v.006h-.019v.006h-.012v.006h-.019v.006h-.018v.006h-.018v.007h-.025v.006h-.025v.006h-.018v.006h-.025v.006h-.018v.006h-.025v.006H5.25v.007h-.02v.006h-.024v.006h-.019v.006h-.024v.006h-.031v.006h-.03v.006h-.025v.007h-.031v.006h-.03v.006H4.99v.006h-.03v.006h-.025v.006h-.043v.006h-.037v.007h-.043v.006h-.037v.006h-.043v.006h-.037v.006h-.061v.006h-.068v.007H4.5v.006h-.07v.006h-.154v.006H4.08v-.006h-.148v-.006h-.08v-.006h-.08V20.2h-.061v-.006h-.05v-.006H3.62v-.006h-.05v-.006h-.043v-.006h-.036v-.007H3.46v-.006h-.037v-.006h-.037v-.006h-.03v-.006h-.031v-.006h-.031v-.006h-.025v-.006h-.024v-.007H3.22v-.006h-.03v-.006h-.025v-.006H3.14v-.006h-.024v-.006H3.09v-.006h-.018v-.007h-.025v-.006h-.019v-.006h-.024v-.006h-.019v-.006h-.024v-.006h-.019v-.007h-.018v-.006h-.018v-.006h-.019v-.006H2.87v-.006h-.02v-.006h-.018v-.007h-.019v-.006h-.018v-.006h-.019v-.006H2.76v-.006h-.018v-.006h-.013v-.006H2.71v-.006h-.012v-.007h-.019v-.006h-.018v-.006h-.013v-.006H2.63v-.006h-.012v-.006h-.019v-.006h-.012v-.007h-.019V19.9h-.012v-.006h-.018v-.006h-.013v-.006h-.012v-.006h-.012v-.007h-.013v-.006H2.47v-.006h-.012v-.006h-.013v-.006h-.012v-.006h-.012v-.006h-.019v-.007H2.39v-.006h-.012v-.006h-.012v-.006h-.013v-.006h-.012v-.006h-.012v-.007h-.013v-.006h-.012v-.006h-.012v-.006h-.013v-.006h-.012v-.006h-.012v-.006h-.012v-.006H2.23v-.007h-.012v-.006h-.012v-.006H2.2v-.006h-.013v-.006h-.012v-.006h-.012v-.006H2.15v-.007h-.006v-.006h-.012v-.006H2.12v-.006h-.013v-.006h-.006v-.006H2.09v-.007h-.012v-.006H2.07v-.006h-.012v-.006h-.012v-.006h-.012v-.006h-.007v-.007h-.012v-.006h-.012v-.006h-.006v-.006h-.013v-.006h-.006v-.006h-.012v-.006h-.012v-.006h-.006v-.007h-.013v-.006H1.93v-.006h-.012v-.006H1.91v-.006h-.013v-.006h-.006v-.006H1.88v-.007h-.012v-.006H1.86v-.006h-.01v-.006h-.006v-.006h-.012V19.5h-.006v-.007h-.007v-.006h-.012v-.006H1.8v-.006h-.012v-.006h-.006v-.006h-.007v-.006h-.012v-.007h-.006v-.006h-.012v-.006h-.007v-.006h-.006v-.006H1.72v-.006h-.006v-.007h-.012v-.006h-.007v-.006h-.012v-.006h-.006v-.006h-.006v-.006h-.006v-.006h-.013v-.006h-.006v-.007H1.64v-.006h-.012v-.006h-.006v-.006h-.006v-.006h-.007v-.006h-.012v-.006h-.006v-.007h-.006v-.006h-.006v-.006h-.013v-.006H1.56v-.006h-.006v-.006h-.012v-.007h-.006v-.006h-.007v-.006h-.006v-.006h-.006v-.006h-.012v-.006h-.006v-.007h-.006v-.006h-.007v-.006H1.48v-.006h-.006v-.006h-.012v-.006h-.006v-.006H1.45v-.006h-.007v-.007h-.006v-.006h-.006v-.006h-.006v-.006h-.012v-.006h-.006v-.006H1.4v-.006h-.006v-.007h-.006v-.006h-.006v-.006H1.37v-.006h-.007v-.006h-.006v-.006h-.006v-.007h-.006v-.006h-.006v-.006h-.006V19.1h-.006v-.006H1.32v-.006h-.006v-.006h-.006v-.007h-.006v-.006h-.006v-.006H1.29v-.006h-.006v-.006h-.007v-.006h-.006v-.007h-.006v-.006H1.26v-.006h-.012v-.006H1.24v-.006h-.007v-.006h-.006v-.006h-.006v-.006h-.006v-.007H1.21v-.006h-.006v-.006h-.006v-.012H1.19v-.006h-.006v-.006H1.18v-.007h-.006v-.006h-.006v-.006H1.16v-.006h-.007v-.006h-.006v-.006h-.006v-.007h-.006v-.006H1.13v-.006h-.006v-.006h-.006v-.006H1.11v-.006h-.006v-.007H1.1v-.006h-.006v-.006h-.006v-.006H1.08v-.012h-.006v-.006h-.007v-.006h-.006v-.007h-.006v-.006H1.05v-.006h-.006V18.8h-.006v-.006h-.006v-.006h-.007v-.007H1.02v-.006h-.006v-.006h-.006v-.006H1v-.012H.995v-.007H.988v-.006H.982v-.006H.976v-.006H.97v-.006H.964v-.012H.958V18.7H.952v-.006H.945v-.006H.94v-.012H.933v-.006H.927v-.007H.921v-.006H.915v-.012H.909v-.006H.902v-.006H.896v-.006H.89v-.013H.884v-.006H.878v-.006H.872v-.012H.866v-.006H.859v-.006H.853v-.007H.847v-.012H.841v-.006H.835v-.006H.829v-.013H.823v-.006H.816v-.006H.81v-.012H.804v-.006H.798v-.013H.792v-.006H.786v-.006H.779v-.012H.773v-.006H.767v-.013H.761v-.006H.755v-.006H.749v-.012H.743v-.006H.736v-.013H.73V18.4H.724v-.006H.718v-.012H.712v-.006H.706v-.013H.7v-.012H.693v-.006H.687v-.012H.681v-.007H.675v-.012H.669v-.006H.663v-.012H.657v-.007H.65v-.012H.644v-.012H.638v-.006H.632v-.012H.626v-.007H.62v-.012H.613v-.006H.607v-.012H.601v-.013H.595v-.006H.589v-.012H.583v-.012H.577v-.013H.57v-.006H.564v-.012H.558v-.013H.552v-.012H.546v-.006H.54v-.012H.534v-.012H.527v-.013H.521v-.006H.515v-.012H.51v-.012H.503v-.013H.497v-.012H.49V18H.484v-.013H.478v-.012H.472v-.012H.466v-.006H.46v-.013H.454v-.012H.448v-.012H.44v-.013H.435v-.012H.43v-.012H.423v-.012H.417v-.013H.41v-.012H.404v-.012H.398v-.019H.392v-.012H.386v-.012H.38v-.013H.374v-.018H.368v-.013H.36v-.012H.355v-.012H.35v-.012H.343v-.019H.337v-.012H.33v-.012H.325v-.019H.318v-.012H.312v-.019H.306v-.012H.3v-.018H.294v-.013H.288v-.018H.282v-.012H.275v-.019H.27v-.012H.263v-.018H.257v-.019H.25v-.018H.245v-.019H.238v-.012H.232v-.019H.226v-.018H.22v-.018H.214v-.019H.208v-.018H.202v-.019H.195V17.3H.19v-.019H.183v-.024H.177v-.019H.171v-.024H.165v-.019H.159v-.024H.152v-.019H.146v-.024H.14v-.019H.134v-.024H.128v-.031H.122v-.025H.116v-.024H.109v-.031H.103v-.025H.097v-.024H.091v-.031H.085v-.03H.079v-.038H.073v-.03H.066v-.037H.06v-.031H.054v-.037H.048v-.043H.042v-.05H.036v-.048H.029v-.05H.023v-.06H.017v-.087H.011v-.08H.005v-.449H.01v-.08h.006v-.086h.006v-.061H.03v-.05h.007v-.048h.006v-.05h.006v-.043h.006v-.037H.06v-.03h.006V15.3h.007v-.03h.006v-.038h.006v-.03H.09v-.031h.006v-.025h.006v-.024H.11v-.031h.007v-.025h.006v-.024h.006v-.031h.006v-.019H.14v-.024h.006v-.025h.006v-.018H.16V14.9h.006v-.018H.17v-.025h.006v-.018h.006v-.025H.19v-.018h.006v-.019h.007v-.018h.006v-.019h.006v-.018H.22v-.019h.006v-.018h.006v-.018h.006v-.013h.007v-.018H.25v-.019h.006V14.6h.006v-.018H.27v-.013h.006v-.018h.007v-.012h.006v-.019h.006v-.012H.3v-.019h.006v-.012h.006v-.018h.006v-.013h.007v-.018H.33v-.012h.006v-.013h.006v-.018h.006v-.012h.006v-.013H.36v-.012h.007v-.012h.006v-.019H.38v-.012h.006v-.012h.006v-.013h.006v-.012h.006v-.018h.007v-.013h.006v-.012h.006v-.012h.006V14.2h.006v-.012h.006v-.012h.007v-.012h.006v-.013H.46v-.012h.006v-.006h.006v-.012h.006v-.013h.006v-.012h.007v-.012h.006v-.013h.006v-.012h.006v-.012h.006v-.013h.006v-.006h.006v-.012h.007v-.012H.54v-.013h.006v-.006h.006v-.012h.006v-.012h.006v-.013H.57v-.006h.007v-.012h.006v-.012h.006v-.006h.006v-.013h.006v-.012h.006v-.012h.006v-.007H.62v-.012h.006v-.006h.006v-.012h.006v-.006h.006v-.013H.65v-.006h.007v-.012h.006v-.012h.006v-.007h.006v-.012h.006v-.006h.006v-.012h.006v-.007H.7v-.012h.006v-.012h.006v-.006h.006v-.006h.006v-.013H.73v-.006h.006v-.012h.007v-.006h.006v-.013h.006v-.006H.76v-.006h.006v-.012h.006v-.006H.78v-.013h.007v-.006h.006v-.006h.006v-.012h.006v-.006H.81v-.013h.006v-.006h.007v-.006h.006v-.012h.006v-.006H.84v-.006h.006v-.013h.006v-.006H.86v-.006h.007v-.006h.006v-.013h.006v-.006h.006v-.006H.89v-.012h.006v-.006h.006v-.006H.91v-.007h.006v-.012H.92v-.006h.006v-.006h.006v-.006H.94v-.013h.006v-.006h.007v-.006h.006v-.006h.006v-.012H.97v-.007h.006v-.006h.006v-.006h.006v-.006h.007v-.006H1v-.006h.006v-.012h.006v-.007h.006v-.006h.006v-.006h.007v-.006h.006v-.006h.006v-.013h.006v-.006h.006v-.006h.006v-.006h.006v-.006h.007v-.006h.006v-.006h.006v-.013h.006v-.006h.006v-.006h.006v-.006h.006v-.006h.007v-.007h.006v-.006h.006v-.006h.006v-.006h.006v-.006h.006v-.006h.006v-.006h.007v-.006h.006v-.007h.006v-.006h.006v-.006h.006v-.006h.006v-.006h.007v-.006h.006v-.013h.006v-.006h.006V13.1h.006v-.006h.006v-.006h.006v-.006h.007v-.007h.012v-.006h.006v-.006h.006v-.006h.006v-.006h.006v-.006h.007v-.006h.006v-.007h.006v-.006h.006v-.006h.006v-.006h.006v-.006h.006v-.006h.007v-.007h.006v-.006h.006v-.006h.006v-.006h.006v-.006h.006v-.006h.006v-.006h.007v-.006h.012v-.007h.006v-.006h.006v-.006H1.4v-.006h.007v-.006h.006v-.006h.012v-.007h.006v-.006h.006v-.006h.006v-.006h.007v-.006h.006v-.006h.006v-.006h.012v-.007h.006v-.006h.006v-.006h.007v-.006h.006v-.006h.006v-.006h.012v-.007h.006v-.006h.006v-.006h.007v-.006h.012v-.006h.006v-.006h.006v-.006h.006v-.006h.013v-.007h.006v-.006h.006v-.006h.006v-.006h.012v-.006h.007v-.006h.006v-.007h.012v-.006h.006v-.006h.006v-.006h.006v-.006h.013v-.006h.006v-.006h.006V12.7h.012v-.006h.006v-.006h.007v-.006h.012v-.006h.006v-.006h.012v-.006h.006v-.007h.007v-.006h.012v-.006h.006v-.006h.012v-.006h.007v-.006h.006v-.007H1.8v-.006h.006v-.006h.012v-.006h.007v-.006h.006v-.006h.012v-.006h.006v-.006h.012v-.007h.007v-.006h.012v-.006h.012v-.006h.006v-.006h.013v-.006h.006v-.007h.012v-.006h.006v-.006h.013v-.006h.012v-.006h.006v-.006h.012v-.006h.006v-.007h.013v-.006h.006v-.006h.012v-.006h.012v-.006h.007v-.006h.012v-.007h.012v-.006h.012v-.006h.007v-.006h.012v-.006H2.1v-.006h.012v-.006h.007v-.006h.012v-.007h.012V12.4h.006v-.006h.013v-.006h.012v-.006h.012v-.006H2.2v-.007h.012v-.006h.012v-.006h.006v-.006h.013v-.006h.012v-.006h.012v-.006h.012v-.007h.013v-.006h.012v-.006h.012v-.006h.013v-.006h.012v-.006h.012v-.006h.013v-.007h.012v-.006h.012v-.006h.012v-.006h.019v-.006h.012v-.006h.012v-.007h.013v-.006h.018v-.006h.012v-.006h.013v-.006h.012v-.006h.012v-.006h.019v-.006h.012v-.007h.012v-.006h.019v-.006h.012v-.006h.019v-.006h.018v-.006h.012v-.007h.019v-.006h.012v-.006h.019v-.006h.012v-.006h.018v-.006h.013v-.006h.018v-.007h.018v-.006h.019v-.006h.018v-.006h.019v-.006h.018v-.006h.019v-.007h.018v-.006h.019v-.006h.018v-.006h.018v-.006h.019v-.006h.024v-.006h.019v-.006h.024v-.007h.019v-.006h.025v-.006h.024v-.006h.019v-.006h.024V12h.025v-.007h.024v-.006h.031v-.006h.025v-.006h.024v-.006H3.3v-.006h.025v-.006h.03v-.007h.037v-.006h.03v-.006h.038v-.006h.03v-.006h.037v-.006h.043v-.006h.05v-.007h.049v-.006h.049v-.006h.055v-.006h.08v-.006h.08v-.006h.154v-.007h.209v.007h.098v.006h.099v.006h.092v.006h.043v.006h.043v.006h.043v.007h.043v.006H4.8v.006h.043v.006h.043v.006h.043v.006h.043v.006h.025v.007h.024v.006h.025v.006h.024v.006h.031v.006h.025v.006h.024v.006h.025V12H5.2v.006h.024v.006h.025v.006h.024v.006h.031v.006h.025v.007h.024v.006h.019v.006h.018v.006h.019v.006h.018v.006h.018v.006h.019v.006h.018v.007h.019v.006h.018v.006h.019v.006h.018v.006h.019v.006h.018v.007h.018v.006h.019v.006h.018v.006h.019v.006h.012v.006h.019v.006h.012v.007h.012v.006h.019v.006h.012v.006h.018v.006h.019v.006h.018v.007h.019v.006h.018v.006h.018v.006h.019v.006h.025v.006h.024v.006h.03v.006h.025v.007h.025v.006h.025v.006h.03v.006h.043v.006h.043v.006h.043v.007h.08v.006h.197v-.006h.068v-.007h.067v-.006h.031v-.006h.03v-.006H6.7v-.006h.024v-.006h.03v-.007h.032v-.006h.03v-.006h.025v-.006h.018v-.006h.019v-.006h.018v-.006h.019v-.006h.018v-.007h.012v-.006h.019v-.006h.018v-.006h.019v-.006h.018v-.006h.013v-.007h.018v-.006h.018v-.006h.013v-.006h.012v-.006h.012v-.006h.013v-.006h.012v-.007h.012v-.006h.012v-.006h.013v-.006h.012v-.006h.012v-.006h.013v-.007h.012v-.006h.012v-.006h.013v-.006h.012v-.006h.006v-.006h.012v-.006h.013v-.006h.006v-.007h.012v-.006h.006v-.006h.012v-.006h.013v-.006h.006V12h.006v-.007h.012v-.006h.006v-.006h.007v-.006h.012v-.006h.006v-.006H7.4v-.006h.007v-.007h.006v-.006h.012v-.006h.006v-.006h.006v-.006h.013v-.006h.006v-.006h.006v-.007h.006v-.006h.006v-.006h.012v-.006h.007v-.006h.006v-.006h.006v-.007h.006v-.006h.006v-.006h.006v-.006h.006v-.006h.013v-.006h.006v-.006h.006v-.006h.006v-.007h.006v-.006h.007v-.006h.006v-.006h.006v-.006h.012v-.006h.006v-.007h.006v-.006h.007v-.012h.006v-.006h.006v-.006h.006v-.006h.006v-.007h.006v-.006h.006v-.006h.007v-.006h.006v-.012h.006v-.007h.006v-.006h.006v-.006h.006v-.006h.006v-.006h.007v-.006h.006v-.006h.006v-.013h.006v-.006h.006v-.006h.006v-.006h.006v-.006h.007v-.013h.006v-.006h.006V11.6h.006v-.006h.006v-.006h.006v-.013h.007v-.006h.006v-.012h.006v-.006H7.8v-.006h.006v-.013h.006v-.006h.006v-.012h.007v-.006h.006v-.012h.006v-.007h.006v-.006h.006v-.012h.006v-.012h.006v-.013h.007v-.006h.006v-.012h.006v-.012h.006v-.013h.006v-.012h.006v-.012h.006v-.006h.007v-.013h.006v-.012h.006v-.012h.006v-.013h.006v-.012h.006v-.006h.007v-.012h.006v-.019h.006v-.012h.006v-.019h.006v-.012h.006v-.018h.006V11.2h.007v-.018h.006v-.012h.006v-.019h.006v-.012h.006v-.018h.006v-.019h.006v-.018h.007v-.025h.006v-.025h.006v-.018h.006v-.025h.006v-.024h.006v-.019h.006v-.024h.007v-.031h.006v-.03h.006v-.038h.006v-.036h.006v-.043h.006v-.074h.006v-.05h.007v-.049h.006v-.043h.006v-.037h.006v-.036h.006v-.037h.006v-.031h.007v-.03h.006v-.025h.006v-.031h.006v-.03h.006v-.02h.006v-.024h.006v-.024H8.2v-.025h.006v-.018h.006v-.025h.006v-.019h.006v-.024h.006v-.019h.006v-.018h.007v-.018h.006v-.019h.006v-.018h.006v-.019h.006v-.018h.006v-.013h.006v-.018h.007v-.018h.006v-.019h.006v-.012h.006v-.019h.006v-.012h.006v-.018h.006v-.013h.007v-.012h.006v-.018h.006V9.78h.006v-.018h.006V9.75h.006v-.013h.007v-.012h.006v-.012h.006v-.019h.006v-.012h.006V9.67h.006v-.013h.006v-.012h.007v-.012h.006V9.62h.006v-.012h.006v-.012h.006v-.012h.006V9.57h.006v-.01h.007v-.006h.006V9.54h.006v-.013h.006v-.012h.006v-.012h.006V9.49h.006v-.01h.007v-.006H8.5V9.46h.006v-.013h.006v-.006h.006V9.43h.006v-.012h.007V9.41h.006V9.4h.006v-.012h.006V9.38h.006v-.013h.006v-.012h.006V9.35h.007v-.012h.006v-.006h.006v-.013h.006v-.006h.006v-.012h.006v-.006h.006v-.013h.007v-.006h.006v-.012h.006v-.006h.006v-.013h.006V9.24h.006v-.006h.006v-.012h.007v-.006h.006v-.013h.006v-.006h.006V9.19h.006v-.012h.006v-.006h.006v-.006h.007v-.013h.006v-.006h.006v-.012h.006v-.006h.006v-.006h.006v-.007h.007v-.012h.006v-.006h.006v-.006h.006v-.006h.006v-.013h.006v-.006h.006v-.006h.007v-.006h.006v-.012h.006v-.007h.006V9.03h.006v-.006h.006v-.006h.006v-.012h.007V9h.006v-.007h.006v-.006h.006v-.006h.006v-.006h.006v-.006h.006v-.012h.007V8.95h.006v-.006h.006v-.006h.006v-.006h.006v-.006H8.9V8.92h.007v-.006h.006V8.9h.006v-.006h.006V8.89h.006v-.006h.006v-.006h.006V8.87h.007v-.006h.006v-.006h.006v-.006h.006v-.006h.006V8.84h.006v-.006h.006v-.007h.007v-.006h.006v-.006h.006V8.81h.006v-.006h.006v-.006h.006V8.79h.006v-.007h.007v-.006h.006v-.006h.006v-.006h.006V8.76h.006v-.006h.006v-.006h.006V8.74h.007v-.006h.012V8.73h.006v-.006h.006v-.006h.006V8.71h.007v-.007h.006v-.006h.006v-.006h.006v-.006h.012V8.68h.006v-.006h.007v-.006h.006V8.66h.006v-.006h.006V8.65h.006v-.006h.012v-.006h.007V8.63h.006v-.006h.006v-.007h.006v-.006h.012v-.006h.006V8.6h.007v-.006h.006v-.006h.012v-.006h.006v-.007h.006V8.57h.007v-.006h.012v-.006H9.3v-.006h.006v-.006h.006V8.54h.013v-.007h.006v-.006h.012V8.52h.006v-.006h.006v-.006h.013v-.006h.006v-.007h.006V8.49h.012v-.006h.006v-.006h.013v-.006h.006v-.006h.006V8.46h.012v-.007h.006v-.006h.013V8.44h.006v-.006h.012v-.006h.006v-.006h.013v-.006h.006v-.007h.012v-.006h.006v-.006h.012v-.006h.007v-.006h.012v-.006h.012v-.006h.006v-.007h.013V8.36h.012v-.006h.006v-.006h.012v-.006h.013v-.006h.006v-.007h.012v-.006h.012v-.006h.007v-.006h.012v-.006h.012v-.006h.012v-.006h.013v-.007h.006V8.28h.012v-.006h.012v-.006h.013v-.006h.012v-.006h.012V8.25h.013v-.007h.012v-.006h.012v-.006h.012v-.006h.013v-.006h.012v-.006h.012v-.006h.013V8.2h.012v-.006h.012v-.006h.013v-.006h.018v-.006h.012V8.17h.013v-.006h.018v-.007h.012v-.006h.013v-.006h.018V8.14h.012v-.006h.013v-.006h.018V8.12h.019v-.006h.012v-.006h.018v-.006h.019v-.006h.012V8.09h.019v-.006h.018v-.007h.018v-.006h.019v-.006h.018V8.06h.019v-.006h.018v-.006h.019V8.04h.018v-.007h.025v-.006h.024v-.006h.019v-.006h.024V8.01h.025v-.006h.018v-.006h.031V7.99h.025v-.006h.03V7.98h.025v-.006h.03v-.006h.031V7.96h.037v-.006h.037v-.007h.037v-.006h.043v-.006h.05V7.93h.048v-.006h.08v-.006h.086V7.91h.277v.007h.11v.006h.093v.006h.19v-.006h.08v-.006h.05V7.91h.037v-.006h.036V7.9h.031v-.006h.037v-.006h.03V7.88h.025v-.006h.019v-.007h.024v-.006h.019v-.006h.018V7.85h.025v-.006h.018v-.006h.025v-.006h.018v-.007h.013V7.82h.018v-.006h.012v-.006h.013v-.006h.018v-.006h.012V7.79h.019v-.007h.012v-.006h.012V7.77h.019v-.006h.012v-.006h.012v-.006h.013v-.007h.012V7.74h.012v-.006h.013v-.006h.012v-.006h.006v-.006h.012V7.71h.013v-.007h.012v-.006h.006V7.69h.012v-.006h.013v-.006h.012v-.006h.006v-.006h.012v-.007h.013v-.006h.006v-.006h.012v-.006h.006v-.006h.013v-.006h.006v-.006h.006v-.007h.012V7.61h.006v-.006h.013v-.006h.006v-.006h.006v-.006h.012V7.58h.006v-.007h.006v-.006h.013v-.006h.006v-.006h.012v-.006h.006v-.006h.007v-.007h.006V7.53h.012v-.006h.006v-.006h.006v-.006h.006v-.006h.007V7.5h.006v-.007h.006v-.006h.006v-.006h.006v-.006h.006v-.006h.007v-.006h.012v-.006h.006V7.45h.006v-.006h.006v-.006h.006v-.006h.006v-.006h.007V7.42h.006v-.006h.006v-.007h.006v-.006h.006v-.006h.006V7.39h.007v-.006h.006v-.006h.006V7.37h.006v-.006h.006v-.006h.006v-.006h.006V7.34h.007v-.006h.006v-.007h.006v-.006h.006v-.006h.006V7.31h.006v-.006h.006v-.006h.007v-.013h.006v-.006h.006v-.006h.006v-.006h.006v-.012h.006v-.006h.007V7.24h.006v-.01H13v-.006h.006v-.006h.006v-.012h.006v-.007h.006v-.012h.006V7.18h.007v-.012h.006V7.16h.006v-.01h.006v-.006h.006v-.012h.006v-.006h.007v-.013h.006V7.1h.006v-.006h.006v-.012h.006v-.007h.006v-.012h.006v-.012h.007v-.012h.006v-.013h.006v-.012h.006v-.012h.006v-.013h.006v-.012h.007v-.012h.006v-.013h.006V6.94h.006v-.012h.006v-.012h.006v-.013h.006v-.012h.006v-.012h.007v-.013h.006v-.018h.006V6.83h.006v-.013h.006V6.8h.006v-.02h.007v-.018h.006v-.019h.006v-.018h.006v-.012h.006v-.019h.006v-.018h.006V6.65h.007v-.024h.006v-.031h.006V6.57h.006v-.03h.006v-.025h.006v-.03h.006v-.031h.007v-.062h.006v-.068h.006v-.067h.006V6.19h-.006v-.166h-.006v-.043h-.006v-.037h-.007v-.037h-.006V5.87h-.006v-.043h-.006v-.03h-.006v-.019h-.006v-.024h-.006v-.025h-.007v-.018h-.006v-.025h-.006v-.025h-.006v-.018h-.006v-.018h-.006v-.019h-.006v-.012h-.007v-.019h-.006v-.018h-.006v-.012h-.006v-.019h-.006v-.018h-.006v-.019h-.007v-.024h-.006v-.019h-.006v-.024h-.006v-.019h-.006v-.018h-.006V5.36h-.006v-.018h-.006v-.019h-.007V5.3h-.006v-.02h-.006v-.018h-.006v-.025h-.006v-.03h-.006v-.025h-.007v-.03h-.006v-.025H13.1v-.031h-.006V5.07h-.006v-.03h-.006v-.025h-.006v-.03h-.007v-.031h-.006V4.93h-.006V4.9h-.006v-.044h-.006v-.049h-.006v-.043h-.007v-.05h-.006v-.048h-.006v-.043h-.006v-.05h-.006v-.061H13v-.105h-.006v-.11h-.006v-.234h.006v-.141H13v-.08h.006v-.08h.006v-.055h.006v-.05h.006v-.049h.006V3.56h.007v-.043h.006v-.03h.006v-.038h.006v-.03h.006V3.38h.006v-.037h.007v-.03h.006v-.025h.006v-.025h.006v-.03h.006v-.025h.006v-.025h.006v-.025h.007v-.03h.006V3.11h.006v-.024h.006v-.019h.006v-.024h.006v-.019h.007V3h.006v-.02h.006v-.024h.006v-.025h.006v-.018h.006v-.019h.006v-.018h.006v-.013h.007v-.018h.006v-.019h.006V2.81h.006v-.018h.006v-.019h.006v-.018h.007v-.019h.006v-.018h.006v-.013h.006v-.018h.006v-.012h.006v-.019h.006v-.012h.007v-.018h.006v-.013h.006v-.018h.006v-.012h.006v-.019h.006v-.012h.006v-.019h.007V2.52h.006v-.012h.006v-.013h.006v-.018h.006v-.012h.006v-.013h.007V2.44h.006v-.012h.006v-.019h.006v-.012h.006v-.012h.006v-.012h.006V2.36h.006v-.012h.007v-.012h.006v-.013h.006v-.012h.006V2.3h.006v-.013h.006v-.012h.007v-.012h.006V2.25h.006v-.013h.006v-.012h.006v-.012h.006V2.2h.006v-.012h.007v-.012h.006V2.17h.006v-.013h.006v-.012h.006V2.14h.006v-.012h.007v-.013h.006v-.012h.006v-.006h.006v-.012h.006V2.07h.006v-.01h.006v-.006h.006V2.04h.007v-.013h.006v-.012h.006V2.01h.006v-.012h.006V1.99h.006v-.01h.007v-.012h.006V1.96h.006v-.013h.006v-.006h.006V1.93h.006v-.006h.006V1.91h.007v-.006h.006v-.012h.006V1.88h.006v-.006h.006v-.013h.006v-.006h.006v-.012h.007v-.006h.006v-.013h.006V1.82h.006v-.012h.006v-.006h.006v-.006h.007v-.013h.006v-.006h.006v-.012h.006v-.006h.006v-.006h.006V1.74h.006v-.006h.006v-.012h.007v-.006h.006V1.71h.006v-.013h.006V1.69h.006v-.012h.006v-.006h.007v-.006h.006v-.013h.006v-.006h.006v-.006h.006v-.006h.006v-.012h.006v-.007h.007V1.61h.006v-.006h.006v-.012h.006v-.006h.006v-.007h.006v-.012h.007v-.006h.006v-.006h.006v-.006h.006v-.013h.006V1.53h.006v-.006h.006v-.006h.006v-.012h.007V1.5h.006v-.007h.006v-.006h.006v-.006h.006v-.006h.006v-.012h.007v-.006h.006V1.45h.006v-.006h.006v-.006h.006v-.006h.006v-.006h.006v-.012h.007v-.007h.006v-.006h.006v-.006h.006V1.39h.006v-.006h.006V1.37h.006v-.006h.007v-.006h.006v-.006h.006v-.006h.006V1.34h.006v-.006h.006v-.007h.007v-.006h.006v-.006h.006V1.31h.006v-.006h.006v-.006h.006V1.29h.006v-.007h.006v-.006h.007v-.006h.006v-.006h.006v-.012h.006v-.006h.006V1.24h.006v-.006h.007V1.23h.006v-.006h.006v-.006h.006V1.21h.006v-.007h.006v-.006h.006v-.006h.007v-.006h.006V1.18h.012v-.006h.006v-.006h.006V1.16h.007v-.006h.006V1.15h.006v-.006h.006v-.006h.006V1.13h.006v-.006h.006v-.007h.006v-.006h.007v-.006h.006V1.1h.006v-.006h.006v-.006h.006v-.006h.006v-.007h.013V1.07h.006v-.006h.006v-.006h.006v-.006h.006v-.006h.006V1.04h.007v-.007h.012v-.006h.006V1.02h.006v-.006h.006v-.006h.006v-.006h.007V.995h.012V.99h.006V.983h.006V.977h.006V.971h.007V.965h.006V.959h.006V.952h.012V.946h.006V.94h.006V.934h.006V.928h.013V.922h.006V.916h.006V.909h.012V.903h.007V.897h.006V.891h.006V.885h.012V.879h.006V.873h.006V.866h.007V.86h.012V.854h.006V.848h.006V.842h.013V.836h.006V.83h.006V.823h.006V.817h.012V.811h.006V.805h.013V.799h.006V.793h.006V.786h.012V.78h.006V.774h.013V.768h.006V.762h.012V.756h.006V.75h.006V.743h.013V.737h.006V.731h.012V.725h.006V.719h.006V.713h.013V.707h.006V.7h.012V.694h.006V.688h.013V.682h.012V.676h.006V.67h.012V.664h.006V.657h.013V.651h.006V.645h.012V.64h.006V.633h.013V.627h.012V.62h.006V.614h.012V.608h.007V.602h.012V.596h.012V.59h.006V.584h.013V.577h.012V.571h.012V.565h.006V.56h.013V.553h.012V.547h.006V.54h.012V.534h.013V.528h.012V.522h.006V.516h.012V.51h.013V.504h.012V.498h.012V.49h.013V.485h.012V.48h.006V.473h.012V.467h.013V.46h.012V.455h.012V.448h.012V.442h.013V.436h.012V.43h.012V.424h.013V.418h.012V.41h.012V.405h.013V.4h.012V.393h.018V.387h.013V.38h.012V.375h.012V.368h.012V.362h.019V.356h.012V.35h.013V.344h.012V.338h.012V.332h.019V.325h.012V.32h.012V.313h.019V.307h.018V.301h.012V.295h.019V.289h.012V.282h.018V.276h.013V.27h.018V.264h.013V.258h.018V.252h.012V.245h.019V.24h.018V.233h.019V.227h.018V.221h.018V.215h.019V.209h.018V.202h.019V.196h.018V.19h.019V.184h.018V.178h.025V.172h.018V.166H16V.159h.018V.153h.025V.147h.018V.141h.025V.135h.018V.129h.025V.123h.024V.116h.031V.11h.025V.104h.024V.098h.031V.092h.025V.086h.024V.08h.037V.073h.03V.067h.038V.061h.03V.055h.037V.049h.037V.043h.043V.036h.05V.03h.049V.024h.043V.018h.067V.012h.08V.006h.08V0h.461v.006h.08v.006h.08v.006h.062v.006h.049V.03h.049v.006h.05v.007h.042v.006h.037v.006h.03V.06h.038v.006h.037v.006h.03V.08h.031v.006h.03v.006h.025v.006h.025v.006h.03V.11h.025v.006h.025v.007h.03v.006h.025v.006h.019V.14h.024v.006h.019v.006h.024V.16h.019v.007h.024v.006h.019v.006h.024v.006h.019V.19h.018v.006h.019v.006h.018V.21h.018v.006h.019V.22h.018v.006h.019v.006h.012V.24h.019v.006h.018v.007h.018v.006h.019v.006h.012V.27h.019v.006h.012v.006h.018V.29h.013v.006h.018V.3h.012v.006h.019v.006h.012V.32h.019v.006h.012v.007h.012v.006h.019v.006h.012V.35h.012v.006h.012v.006h.013v.006h.018v.007h.013V.38h.012v.006h.012v.006h.012v.006h.019v.006h.012V.41h.012v.007H19v.006h.012V.43h.012v.006h.013v.006h.012v.006h.012v.007h.013V.46h.006v.006h.012v.006h.012v.006h.013v.006h.012V.49h.012v.007h.012v.006h.013V.51h.012v.006h.006v.006h.013v.006h.012v.006h.012v.007h.006v.006h.012v.006h.013v.006h.012v.006h.006v.006h.013v.006h.012v.007h.006V.59h.012v.006h.013v.006h.012v.006h.006v.006h.012V.62h.006v.007h.013v.006h.006v.006h.012v.006h.006v.006h.013v.006h.012v.007h.006V.67h.012v.006h.007v.006h.012v.006h.006v.006h.012V.7h.013v.007h.006v.006h.006v.006h.012v.006h.006v.006h.013v.006h.006v.006h.012V.75h.006v.006h.006v.006h.013v.006h.006v.006h.012V.78h.006v.006h.006v.007h.013v.006h.006v.006h.012V.81h.006v.006h.006v.006h.013V.83h.006v.006h.006v.006h.012v.006h.006v.006h.007V.86h.006v.006h.012v.007h.006v.006h.006v.006h.006V.89h.013v.006h.006v.006h.006V.91h.012v.007h.007v.006h.006v.006h.006v.006h.012V.94h.006v.006h.006v.006h.007V.96h.012v.006h.006V.97h.006v.006h.006v.006h.006V.99h.007v.006h.006v.007h.012v.006h.006v.006h.006v.006h.006v.006h.007v.006h.006v.007h.012v.006h.006v.006h.006v.006h.007v.006h.006v.006h.006v.006h.006v.007h.012v.006h.006v.006h.006V1.1h.007v.006h.006v.006h.006v.006h.006v.007h.006v.006h.006v.006h.007v.006h.006v.006h.006v.006h.006v.006h.006v.007h.006v.006h.006v.006h.007v.006h.006v.006h.006v.006h.006v.006h.012v.007h.006v.006h.007v.006h.006v.006h.006v.012h.006v.007h.006v.006h.006v.006h.007v.006h.006v.006h.006v.006h.006v.006h.006v.007h.006v.006h.006v.006h.007v.006h.006v.006h.006v.006h.006v.006h.006v.007h.006v.006h.006v.006h.007v.006h.006v.006h.006v.012h.006v.007h.006v.006h.006v.006h.006v.006h.007v.006h.006v.006h.006v.013h.006v.006h.006v.006h.006v.006h.007v.006h.006v.006h.006v.013h.006v.006h.006v.006h.006v.006h.006v.006h.006v.006h.007V1.5h.006v.012h.006v.006h.006v.006h.006v.006h.006v.013h.007v.006h.006v.006h.006v.006h.006v.012h.006v.006h.006v.007h.006v.006h.007v.012h.006v.006h.006v.006h.006v.013h.006v.006h.006v.006h.006v.006h.007v.012h.006v.007h.006v.006h.006v.012h.006v.006h.006v.006h.007v.013h.006v.006h.006v.012h.006v.006h.006v.006h.006v.013h.006v.006h.007v.012h.006v.006h.006v.006h.006v.013h.006V1.8h.006v.012h.006v.006h.007v.006h.006v.013h.006v.006h.006v.012h.006v.012h.006v.007h.006v.012h.007v.006h.006v.012h.006v.006h.006v.013h.006v.006h.006v.012h.007v.012h.006v.007h.006v.012h.006v.006h.006v.012h.006v.007h.006v.012h.006v.012h.007v.006h.006v.013h.006v.012h.006v.012h.006v.006h.006v.013h.007v.012h.006v.012h.006v.006h.006v.013h.006v.012h.006v.012h.006v.006h.007v.013h.006v.012h.006v.012h.006v.013h.006v.012h.006v.012h.006v.012h.007v.007h.006v.012h.006v.012h.006v.012h.006V2.3h.006v.012h.007v.012h.006v.013h.006v.012h.006v.012h.006v.013h.006v.012h.006v.018h.007v.013h.006v.012h.006v.012h.006v.012h.006v.019h.006v.012h.006v.012h.007v.013h.006v.012h.006v.019h.006v.012h.006v.018h.006v.013h.006V2.6h.007v.012h.006v.019h.006v.012h.006v.018h.006v.013h.006v.018h.007v.012h.006v.019h.006v.012h.006v.019h.006v.018h.006v.019h.006v.018h.006v.018h.007v.019h.006v.018h.006v.019h.006V2.9h.006v.019h.006v.018h.007v.025h.006v.018h.006v.025h.006v.018h.006v.025h.006v.018h.006v.025h.007v.018h.006v.025h.006v.024h.006v.031h.006v.025h.006v.024h.006v.031h.007v.025h.006v.024h.006v.031h.006v.037h.006v.037h.006v.03h.007v.037h.006v.031h.006v.05h.006v.042h.006v.05h.006v.049h.006v.061h.007v.08h.006v.08h.006v.16h.006v.154h-.006v.16h-.006v.08h-.006v.08h-.007v.06h-.006v.05h-.006v.049H21.3v.05h-.006v.042h-.006v.037h-.006v.03h-.007v.038h-.006v.03h-.006v.037h-.006v.031h-.006v.025h-.006v.03h-.007v.025h-.006v.025h-.006v.03h-.006v.025h-.006v.025h-.006v.024h-.006v.025h-.007v.018h-.006V5.3h-.006v.018h-.006v.025h-.006v.018h-.006v.025h-.006v.018h-.007v.019h-.006v.018h-.006v.019h-.006v.018h-.006v.018h-.006v.019h-.006v.018h-.007v.019h-.006v.018h-.006v.019h-.006v.018h-.006v.012h-.006v.019h-.006v.018h-.007v.013h-.006v.018h-.006v.012h-.006v.019h-.006v.012h-.006v.019h-.007v.012h-.006v.018h-.006v.013h-.006v.018h-.006v.012h-.006v.013h-.006v.012h-.007v.012h-.006v.019h-.006v.012h-.006v.01h-.006v.013h-.006v.018h-.006v.012h-.007v.013h-.006v.012h-.006v.012h-.006v.012h-.006v.013h-.006v.012h-.006v.012H20.9v.013h-.006v.012h-.006v.012h-.006v.013h-.006v.012h-.006v.012h-.007v.012h-.006v.013h-.006v.012h-.006v.012h-.006v.013h-.006v.006h-.006v.012h-.007v.012h-.006v.013h-.006v.006h-.006v.012h-.006v.012h-.006v.006h-.006v.013h-.007v.012h-.006v.012h-.006v.007h-.006V6.3h-.006v.012h-.006v.012h-.006v.007h-.007v.012h-.006v.012h-.006v.006h-.006v.013h-.006v.006h-.006v.012h-.006v.006h-.007v.012h-.006v.007h-.006v.012h-.006v.012h-.006v.006h-.006v.013h-.007v.006h-.006v.012h-.006v.006h-.006v.013h-.006v.006h-.006v.012h-.006v.006h-.007v.012h-.006v.007H20.6v.006h-.006v.012h-.006v.006h-.006v.012h-.006v.007h-.007v.006h-.006v.012h-.006v.006h-.006v.012h-.006v.007h-.006v.012h-.006v.006h-.007v.006h-.006v.013h-.006v.006h-.006v.006H20.5v.012h-.006v.006h-.007V6.7h-.006v.007h-.006v.012h-.006v.006h-.006v.006h-.006v.012h-.006v.007h-.007v.006h-.006v.006h-.006v.012h-.006v.006h-.006v.006h-.006v.007h-.006v.012h-.007v.006h-.006v.006h-.006v.013h-.006v.006h-.006v.006h-.006v.006h-.006v.006h-.007v.006h-.006v.006h-.006v.013h-.006v.006h-.006v.006h-.006v.006h-.006v.006h-.007v.006h-.006v.013h-.006v.006h-.006v.006h-.006v.006h-.006v.006h-.007v.006h-.006v.007h-.006v.012h-.006v.006h-.006v.006h-.006v.006h-.006v.006h-.007v.007h-.006v.006h-.006v.006h-.006v.006h-.006v.006h-.006v.006H20.2v.007h-.007v.006h-.006v.006h-.006v.006h-.006v.012h-.006v.006h-.006v.007h-.006v.006h-.007v.006h-.006V7.1h-.006v.006h-.006v.006h-.006v.006h-.006v.007h-.007v.006h-.006v.006h-.006v.006h-.006v.006h-.006v.006h-.006v.006h-.006v.007h-.007v.006h-.006v.006h-.012v.006h-.006v.006h-.006v.006h-.006v.006h-.007v.007h-.006v.006h-.006v.006h-.006v.006h-.006v.006h-.006v.006h-.006v.007h-.007v.006h-.006v.006h-.006v.006h-.006v.006h-.006v.006h-.012v.006h-.007v.007h-.006v.006h-.006v.006h-.006v.006h-.006v.006h-.013v.006h-.006v.006h-.006v.007h-.006v.006h-.006v.006h-.006v.006h-.006v.006h-.013v.006h-.006v.006h-.006v.007h-.006v.006h-.006v.006h-.006v.006h-.013v.006h-.006v.006H19.8v.007h-.006v.006h-.012v.006h-.007v.006h-.006v.006h-.012v.006h-.006v.006h-.006v.007h-.007v.006h-.012v.006h-.006v.006h-.006v.006h-.006v.006h-.012v.006h-.007V7.5h-.006v.006h-.012v.006h-.006v.006h-.006v.006h-.013v.006h-.006v.006h-.006v.007h-.012v.006h-.006v.006h-.013v.006h-.006v.006h-.006v.006h-.012v.006h-.006v.007h-.013v.006h-.006v.006h-.006v.006h-.012v.006h-.007v.006h-.012v.007h-.006v.006h-.006v.006h-.012v.006h-.013v.006h-.006v.006h-.012v.006h-.006v.007h-.013v.006h-.006v.006h-.012v.006h-.006v.006h-.012v.006h-.013v.006h-.006v.007h-.012v.006h-.006v.006h-.013v.006h-.006v.006h-.012v.006h-.006v.006h-.012v.007h-.013v.006h-.012v.006h-.006v.006h-.013v.006h-.012v.006h-.012v.007h-.006v.006h-.013V7.8h-.012v.006h-.012v.006h-.006v.006h-.013v.006h-.012v.007h-.012v.006h-.006v.006h-.013v.006h-.012v.006h-.012v.006h-.013v.006H19.1v.007h-.012v.006h-.012v.006h-.013v.006h-.012v.006h-.012v.006h-.013v.006h-.012v.007h-.012v.006h-.006v.006h-.013v.006h-.018v.006h-.012v.006h-.013v.006h-.012v.007h-.012v.006h-.019v.006h-.012v.006h-.012v.006h-.013v.006h-.012v.007h-.018v.006h-.013v.006h-.012v.006h-.012v.006h-.019v.006h-.012v.006h-.018v.007h-.013v.006h-.018v.006H18.7v.006h-.019v.006h-.018v.006h-.013v.006h-.018v.007h-.012v.006h-.02v.006h-.018v.006h-.012v.006h-.019v.006h-.018v.006h-.019v.007h-.018v.006h-.019v.006h-.018v.006h-.019v.006h-.018v.006h-.018v.007h-.025v.006h-.019v.006h-.024v.006h-.019v.006h-.024v.006h-.019V8.2h-.024v.007h-.019v.006h-.024v.006h-.025v.006h-.024v.006h-.031v.006h-.025v.006h-.024v.007h-.031v.006h-.025v.006h-.03v.006h-.037v.006h-.031v.006h-.037v.006h-.03v.007h-.038v.006h-.036v.006h-.05v.006h-.049v.006h-.049v.006h-.05v.006H17.5v.007h-.08v.006h-.13v.006h-.251v-.006h-.136v-.006h-.073v-.007h-.074v-.006h-.068v-.006h-.043v-.006h-.049v-.006h-.043v-.006h-.043v-.006h-.043v-.007h-.03V8.28H16.4v-.006h-.03v-.006h-.037v-.006h-.031v-.006h-.025V8.25h-.03v-.007h-.025v-.006h-.043v-.006h-.037v-.006H16.1v-.006h-.037v-.006h-.086v-.006h-.209v.006h-.074v.006h-.043v.006h-.043v.006h-.037v.006h-.036v.006h-.025v.007h-.025v.006h-.024v.006h-.025v.006h-.024v.006h-.025v.006h-.025v.006h-.012v.007h-.018v.006h-.019v.006h-.018v.006h-.019v.006h-.018v.006h-.012v.006h-.019v.007h-.018v.006h-.013v.006h-.012v.006h-.012v.006h-.012v.006h-.013v.007h-.012v.006h-.018v.006h-.013v.006h-.012v.006h-.012v.006h-.013v.006h-.012v.007h-.012v.006h-.006v.006h-.013v.006h-.012v.006h-.006v.006h-.012v.006h-.013v.007h-.006v.006h-.012v.006h-.012v.006h-.007v.006h-.012v.006h-.012v.006h-.006v.007H14.9v.006h-.006v.006h-.006v.006h-.012v.006h-.006v.006h-.006v.007h-.013v.006h-.006v.006h-.012v.006h-.006v.006h-.007v.006h-.012v.006h-.006v.007h-.006v.006h-.012v.006h-.007V8.6h-.006v.006h-.006v.006h-.012v.006h-.006v.007h-.006v.006h-.007v.006h-.006v.006h-.006v.006h-.006v.006h-.012v.006h-.007v.007h-.006v.006h-.006v.006h-.006v.006h-.006v.006h-.006v.006h-.006v.006h-.006v.007h-.007v.006h-.006v.006h-.006v.006h-.006v.006h-.006v.006h-.006v.007h-.007v.006h-.006v.006H14.6v.006h-.006v.006h-.006v.012h-.006v.007h-.006v.006h-.007v.006h-.006v.006h-.006v.006h-.006v.012h-.006v.007h-.006v.006h-.007v.006h-.006v.006h-.006v.012h-.006v.006h-.006v.007H14.5v.006h-.006v.012h-.006v.006h-.007v.013h-.006v.006h-.006v.012h-.006v.006h-.006v.012h-.006v.007h-.007v.006h-.006v.012h-.006v.006h-.006v.012h-.006V9h-.006v.012h-.006v.006h-.007v.012h-.006v.006h-.006v.013h-.006v.006h-.006v.012h-.006v.012h-.006v.013h-.007v.012h-.006v.012h-.006v.013h-.006v.012h-.006v.012h-.006v.013h-.007v.012h-.006v.012h-.006v.006h-.006v.013h-.006v.012h-.006v.012h-.006v.012h-.006v.019h-.007v.012h-.006v.019h-.006v.018h-.006v.019h-.006v.012h-.006v.018h-.007v.019h-.006v.018h-.006v.019h-.006v.012h-.006v.018h-.006v.019H14.2v.03h-.007v.025h-.006v.03h-.006v.025h-.006v.031h-.006v.025h-.006v.024h-.007v.05h-.006v.067h-.006v.062h-.006v.227h.006v.074h.006v.05h.006v.042h.007v.043h.006v.025h.006v.03h.006v.025h.006v.037h.006v.037h.007v.043h.006v.037h.006v.043h.006v.037h.006v.043h.006v.061h.006v.086h.007v.08h.006v.258h-.006v.099h-.007v.08h-.006v.055h-.006v.043h-.006v.05h-.006v.042h-.006v.03H14.2v.038h-.007v.03h-.006v.031h-.006v.031h-.006v.025h-.006v.024h-.006v.025h-.007v.024h-.006v.031h-.006v.025h-.006v.018h-.006v.025h-.006v.018h-.006v.019h-.006v.018h-.007v.025h-.006v.018h-.006v.019h-.006v.018h-.006v.018h-.006v.019h-.007v.012h-.006v.019h-.006v.018h-.006v.012h-.006v.019h-.006v.018h-.006v.013h-.007v.018h-.006v.012h-.006v.013h-.006v.018h-.006v.012h-.006v.019h-.006v.012h-.007v.012h-.006v.019h-.006v.012h-.006v.012h-.006v.013h-.006v.012h-.007v.012h-.006v.013h-.006v.012h-.006v.012h-.006v.012h-.006v.013h-.006v.012h-.006v.012h-.007v.013h-.006v.012h-.006v.012h-.006v.012h-.006v.007h-.006v.012h-.007v.012h-.006v.013h-.006v.006h-.006v.012h-.006v.012h-.006v.013h-.006v.012h-.007v.006h-.006v.012h-.006v.013H13.8v.006h-.006v.012h-.006v.006h-.007v.012h-.006v.007h-.006v.012h-.006v.012h-.006v.006h-.006v.013h-.006v.006h-.006v.012h-.007v.012h-.006v.007h-.006v.006h-.006v.012h-.006v.006h-.006v.012h-.007v.007h-.006v.006h-.006v.012h-.006v.006h-.006v.013h-.006v.006h-.006v.006h-.007v.012h-.006v.006h-.006v.012h-.006v.007h-.006v.006h-.006v.012h-.006v.006h-.007v.006h-.006v.007h-.006v.012h-.006v.006h-.006v.006h-.006v.006h-.007v.013h-.006v.006h-.006v.006h-.006v.006h-.006v.012h-.006v.007h-.006v.006h-.006v.006h-.007v.006h-.006v.012h-.006v.006h-.006v.006h-.006v.007h-.006v.006h-.007v.006h-.006v.006h-.006v.012h-.006v.007h-.006v.006h-.006v.006h-.006v.006h-.007v.006h-.006v.006h-.006v.006h-.006v.013h-.006v.006h-.006v.006h-.007v.006H13.4v.006h-.006v.006h-.006v.007h-.006v.006h-.006v.006h-.006v.006h-.006v.006h-.007v.006h-.006v.007h-.006v.006h-.006v.006h-.006v.006h-.006v.006h-.007v.006h-.006v.006h-.006v.006h-.006v.007h-.006v.006h-.006v.006h-.006v.006h-.007v.006h-.012v.006h-.006v.007h-.006v.006h-.006v.006h-.006v.006h-.007v.006h-.006v.006h-.006v.006h-.006v.007h-.006v.006h-.006v.006h-.013v.006h-.006v.006h-.006v.006h-.006v.007h-.006v.006h-.006v.006h-.006v.006h-.013v.006h-.006v.006h-.006v.006h-.006v.006h-.006v.007h-.007v.006h-.006v.006H13.1v.006h-.006v.006h-.006v.006h-.006v.007h-.006v.006h-.007v.006h-.006v.006h-.006v.006h-.006v.006h-.006v.006h-.006v.013h-.007v.006h-.006v.006h-.006v.006h-.006v.006h-.006v.006H13v.007h-.006v.006h-.006v.012h-.007v.006h-.006v.006h-.006v.007h-.006v.012h-.006v.006h-.006v.006h-.007v.006h-.006v.006h-.006v.013h-.006v.006h-.006v.006h-.006v.012h-.006v.006h-.007v.013h-.006v.006h-.006v.012h-.006v.006h-.006v.006h-.006v.013h-.006v.006h-.007v.012h-.006v.006h-.006v.013h-.006v.012h-.006v.006h-.006v.012h-.007v.013h-.006v.006h-.006v.012h-.006v.012h-.006v.007h-.006v.012h-.006v.012h-.006v.012h-.007v.013h-.006v.012h-.006v.012h-.006v.013h-.006v.012h-.006v.012h-.007v.013h-.006v.018h-.006v.012h-.006v.012h-.006v.013h-.006v.018H12.7v.013h-.007v.018h-.006v.018h-.006v.013h-.006v.018h-.006v.019h-.006v.018h-.007v.018h-.006v.025h-.006v.019h-.006v.024h-.006v.019h-.006v.024h-.006v.03h-.006v.032h-.007v.024h-.006v.037h-.006v.043h-.006v.043h-.006v.074h-.006v.24h.006v.074h.006v.043h.006v.049h.006v.03h.006v.031h.007v.03h.006v.032h.006v.024h.006v.019h.006v.024h.006v.019h.006v.024h.006v.019h.007v.018h.006v.013h.006v.018h.006v.018h.006v.019h.006v.012h.007v.019h.006v.012h.006v.012h.006v.019h.006v.012h.006v.012h.006v.019h.007v.012h.006v.012h.006v.013h.006v.012h.006v.012h.006v.006h.007v.012h.006v.013h.006v.012h.006v.012h.006v.013h.006v.006h.006v.012h.006v.012h.007v.007h.006v.012h.006v.006h.006v.012h.006v.013h.006v.006h.007v.012h.006v.006h.006v.012h.006v.007h.006v.006h.006v.012h.006v.006h.007v.013h.006v.006h.006v.006h.006v.012h.006v.006h.006v.006h.006v.013h.007v.006h.006v.006h.006v.006h.006v.006h.006v.013h.006v.006h.007v.006h.006v.006H13v.012h.006v.007h.006v.006h.006v.006h.006v.006h.006v.006h.007v.006h.006v.006h.006v.006h.006v.007h.006v.006h.006v.006h.007v.006h.006v.012h.006v.007h.012v.006h.006v.006h.006v.006h.007v.006h.006v.006h.006v.006h.006v.007h.006v.006h.006v.006h.007v.006h.006v.006h.006v.006h.006v.007h.012v.006h.006v.006h.006v.006h.007v.006h.012v.006h.006v.006h.006v.006h.006v.007h.013v.006h.006v.006h.006v.006h.006v.006h.012v.006h.007v.006h.012v.007h.006v.006h.006v.006h.012v.006h.007v.006h.012v.006h.006v.007h.012v.006h.007v.006h.012v.006h.006v.006h.012v.006h.006v.006h.013v.007h.012v.006h.006v.006h.012v.006h.013v.006h.006v.006h.012v.006h.012v.007h.013v.006h.012v.006h.012v.006h.013v.006h.012v.006h.012v.006h.012v.007h.013v.006h.012v.006h.019v.006h.012v.006h.012v.006h.019v.006h.012v.007h.012v.006h.019v.006h.018v.006h.018v.006h.019v.006h.018v.007h.019v.006h.018v.006h.019v.006h.024v.006h.019v.006h.024v.006h.025v.007h.03v.006h.025v.006h.019v.006h.018v.006h.025v.006h.018v.006h.019v.007h.024v.006h.019v.006h.018v.006h.018v.006h.013v.006h.018v.006h.019v.007h.012v.006h.018v.006h.013v.006h.018v.006h.019v.006h.012v.007h.018v.006h.019v.006h.012v.006h.012v.006h.013v.006h.012v.006h.012v.007h.013v.006h.012v.006h.012v.006h.012v.006h.013v.006h.018v.006h.012v.007h.013v.006h.012v.006h.012v.006h.013v.006h.006v.006h.012v.006h.012v.007h.013v.006h.006v.006h.012v.006h.012v.006h.007v.006h.012v.006h.012v.007h.006v.006h.013v.006h.012v.006h.006v.006h.012v.006h.013v.007h.012v.006h.006v.006h.012v.006h.007v.006h.006v.006h.012v.006h.006v.007h.012v.006h.007v.006h.006v.006h.012v.006h.006v.006h.012v.006h.007v.007h.006v.006h.012v.006h.006v.006h.012v.006h.007v.006h.012v.006h.006v.007h.006v.006h.012v.006h.007v.006h.006v.006h.006v.006h.006v.007h.006v.006h.013v.006h.006v.006h.006v.006h.006v.006h.006v.006h.012v.007h.007v.006h.006v.006h.006v.006h.006v.006h.012v.006h.007v.006h.006v.007h.006v.006h.006v.006h.006v.006h.012v.006h.006v.006h.007v.006h.006v.007h.006v.006h.006v.006h.006v.006h.006v.006h.007v.006h.006v.006h.006v.007h.006v.006h.006v.006h.006v.006h.006v.006h.007v.006h.006v.007h.006v.006h.006v.006h.006v.006h.006v.006h.006v.006h.007v.006h.006v.007h.006v.006h.006v.006h.006v.012h.006v.006h.007v.006h.006v.007h.006v.006h.006v.006h.006v.012h.006v.006h.006v.006h.006v.007h.007v.006h.006v.006h.006v.012h.006v.006h.006v.007h.006v.006h.007v.006h.006v.006h.006v.012h.006v.006h.006v.007h.006v.006h.006v.012h.007v.006h.006v.006h.006v.013h.006v.006h.006v.006h.006v.012h.007v.006h.006v.013h.006v.006h.006v.006h.006v.012h.006v.006h.006v.006h.006v.013h.007v.006h.006v.012h.006v.006h.006v.007h.006v.012h.006v.006h.007v.012h.006v.013h.006v.006h.006v.012h.006v.012h.006v.006h.006v.013h.007v.012h.006v.006h.006v.012h.006v.007h.006v.012h.006v.012h.006v.006h.007v.013h.006v.012h.006v.006h.006v.012h.006v.013h.006v.012h.007v.012h.006v.013h.006v.012h.006v.012h.006v.012h.006v.013h.006v.012h.006v.012h.007v.013h.006v.012h.006v.012h.006v.013h.006v.012h.006v.018h.007v.013h.006v.018h.006v.012h.006v.019h.006v.012h.006v.018h.006v.013h.007v.012h.006v.019h.006v.012h.006v.018h.006V18h.006v.024h.007v.019h.006v.018h.006v.018h.006v.025h.006v.018h.006v.019h.006v.018h.006v.019h.007v.024h.006v.025h.006v.025h.006v.03h.006v.025h.006v.03h.007v.025h.006v.031h.006v.025h.006v.049h.006v.049h.006v.043h.006v.05h.007v.06h.006v.105h.006v.172h-.006v.111h-.006v.08h-.007v.05h-.006v.048h-.006v.043h-.006v.031h-.006v.037h-.006v.03h-.006v.031h-.007v.025h-.006v.03h-.006v.025h-.006v.025h-.006v.024h-.006v.019h-.007v.024h-.006v.019h-.006v.024h-.006v.019h-.006v.018h-.006v.019h-.006v.018h-.006v.019h-.007v.018h-.006v.019h-.006v.018h-.006v.012h-.006v.019h-.006v.012h-.007v.019h-.006v.012h-.006v.018h-.006v.019h-.006v.012h-.006v.012H15.7v.013h-.007v.012h-.006v.018h-.006v.013h-.006v.012h-.006v.012h-.006v.012h-.007v.013h-.006v.012h-.006v.012h-.006v.013h-.006v.012h-.006v.012h-.006v.013h-.006v.012h-.007v.012h-.006v.012h-.006v.007h-.006v.012h-.006v.012h-.006v.012h-.007v.007h-.006v.012h-.006v.012h-.006v.006h-.006v.013h-.006v.012h-.006v.006h-.007v.012h-.006v.007h-.006v.012h-.006v.012h-.006v.006h-.006v.013h-.006v.006h-.007v.012h-.006v.006h-.006v.012h-.006v.007h-.006v.012h-.006v.006h-.007v.006h-.006v.012h-.006v.007h-.006v.012h-.006v.006h-.006v.006h-.006v.013h-.006v.006h-.007v.006h-.006v.012h-.006v.006h-.006v.006h-.006v.013h-.006v.006h-.007v.006h-.006v.006h-.006v.012h-.006v.007h-.006v.006h-.006v.006h-.006v.012h-.007v.006h-.006v.006h-.006v.007H15.3v.006h-.006v.006h-.006v.012h-.007v.006h-.006v.007h-.006v.006h-.006v.006h-.006v.006h-.006v.012h-.006v.006h-.006v.007h-.007v.006h-.006v.006h-.006v.006h-.006v.006h-.006v.006h-.006v.006h-.007v.007h-.006v.006h-.006v.006h-.006v.006h-.006v.006h-.006v.006h-.006v.006h-.007v.007h-.006v.006h-.006v.006h-.006v.006h-.006v.006h-.006v.006h-.006v.006h-.007v.007h-.006v.006h-.006v.006h-.006v.006h-.006v.006h-.006v.006h-.007v.007h-.006v.006h-.012v.006h-.006v.006h-.006v.006h-.006v.006h-.006v.006h-.007v.007h-.006v.006h-.012v.006h-.006v.006h-.006v.006h-.007v.006h-.006v.006h-.006v.007h-.012v.006h-.006v.006h-.006v.006h-.007v.006h-.012v.006h-.006v.006h-.006v.007h-.013v.006H14.9v.006h-.006v.006h-.006v.006h-.012v.006h-.006v.007h-.006v.006h-.013v.006h-.006v.006h-.012v.006h-.006v.006h-.007v.006h-.012V21h-.006v.006h-.012v.006h-.006v.006h-.007v.006h-.012v.006h-.012v.006h-.006v.007h-.013v.006h-.006v.006h-.012v.006h-.006v.006h-.013v.006h-.006v.006h-.012v.007h-.012v.006h-.006v.006h-.013v.006h-.012v.006h-.006v.006h-.012v.006h-.013v.007h-.012v.006h-.006v.006h-.012v.006h-.013v.006h-.012v.006h-.012v.007h-.013v.006h-.012v.006h-.006v.006h-.012v.006h-.013v.006h-.012v.006h-.012v.007h-.013v.006h-.012v.006h-.018v.006h-.013v.006h-.012v.006h-.012v.006h-.012v.007h-.019v.006h-.012v.006h-.013v.006h-.018v.006h-.012v.006h-.019v.006h-.012v.007h-.018v.006h-.013v.006h-.018v.006h-.019v.006h-.018v.006h-.019v.007h-.018v.006h-.018v.006h-.02v.006h-.018v.006h-.019v.006h-.024v.006h-.019v.007h-.024v.006h-.019v.006h-.024v.006h-.031v.006h-.025v.006h-.024v.006h-.031v.007h-.03v.006h-.038v.006h-.03v.006h-.037v.006h-.05v.006h-.049v.006h-.061v.007h-.08v.006h-.289Zm-3.204-3.78v.005h.228v-.006h.073v-.006h.043v-.006h.037v-.006h.037v-.006h.043v-.007h.025v-.006h.024v-.006h.025v-.006h.025v-.006h.018v-.006h.025v-.007h.024v-.006h.019v-.006h.018V17.6h.019v-.006h.012v-.006h.018v-.006h.019v-.007h.012v-.006h.018v-.006h.019v-.006h.012v-.006h.019v-.006h.012v-.007h.012v-.006h.013v-.006h.012v-.006h.012v-.006h.012v-.006h.013v-.006h.012v-.006h.012v-.007h.013v-.006h.012v-.006h.012v-.006h.012v-.006h.013v-.006h.006v-.006h.012v-.007h.006v-.006h.013v-.006h.006v-.006h.012v-.006h.006v-.006h.013v-.007h.012v-.006h.006v-.006h.012v-.006h.006v-.006h.013v-.006h.006v-.007h.012v-.006h.006v-.006h.013v-.006h.006v-.006h.006v-.006h.006v-.006h.012v-.006h.006v-.007h.007v-.006h.006v-.006h.012v-.006h.006v-.006h.006v-.006h.007v-.006h.012v-.007h.006v-.006h.006v-.006h.006v-.006h.013v-.006h.006v-.006h.006v-.007h.006v-.006h.006v-.006h.006v-.006h.007v-.006h.006v-.006h.006v-.006h.006V17.2h.006v-.006h.006v-.006h.006v-.006h.006v-.006h.007v-.006h.006v-.007h.006v-.006h.006v-.006h.006v-.006h.006v-.006h.007v-.006h.006v-.006h.006v-.006h.006v-.007h.006v-.006h.006v-.006h.006v-.006h.007v-.006h.006v-.006h.006v-.006h.006v-.007h.006v-.006h.006v-.006h.006v-.012h.007v-.006h.006v-.007h.006v-.006h.006v-.006h.006v-.006h.006v-.006h.007v-.006h.006v-.007h.006v-.006h.006v-.006h.006v-.006h.006v-.006h.006v-.006h.006v-.006h.007v-.006h.006v-.007h.006v-.006h.006v-.006h.006v-.006h.006v-.006h.007v-.006h.006v-.006h.006v-.007h.006V16.9h.006v-.006h.006v-.006h.006v-.012h.007v-.007h.006v-.006h.006v-.006h.006v-.006h.006v-.006h.006v-.012h.007v-.007h.006v-.006h.006v-.006h.006v-.006h.006v-.012h.006v-.007h.006v-.006h.006v-.012h.007v-.006h.006v-.006h.006v-.012h.006v-.007h.006v-.012h.006v-.006h.007v-.006h.006v-.012h.006v-.007h.006v-.012h.006v-.006h.006v-.012h.006v-.013h.007v-.006h.006v-.012h.006v-.006h.006v-.013h.006v-.006h.006v-.012h.006v-.012h.007v-.013h.006v-.012h.006v-.012h.006v-.012h.006v-.007h.006v-.012h.007v-.012h.006v-.013h.006v-.012h.006v-.018h.006v-.013h.006v-.012h.006v-.012h.006v-.012h.007v-.019h.006v-.012h.006v-.019h.006v-.012h.006v-.018h.006v-.019h.007v-.012h.006v-.019h.006v-.018h.006v-.018h.006v-.025h.006v-.018h.006v-.019h.007v-.024h.006v-.025h.006v-.03h.006v-.025h.006v-.031h.006v-.037h.007v-.037h.006v-.043h.006v-.068h.006v-.153h.006V15.7h-.006v-.122h-.006v-.05h-.006v-.049h-.006v-.037h-.007v-.037h-.006v-.03h-.006v-.031h-.006v-.025h-.006v-.024h-.006v-.025h-.007v-.024h-.006v-.019h-.006v-.018h-.006v-.019h-.006v-.018h-.006v-.019h-.006v-.018h-.007v-.019h-.006v-.012h-.006v-.018h-.006v-.013h-.006v-.012h-.006v-.018h-.007v-.013H11.9v-.018h-.006V15h-.006v-.013h-.006v-.012h-.006v-.012h-.006v-.013h-.006v-.012h-.007v-.012h-.006v-.012h-.006V14.9h-.006v-.012h-.006v-.006h-.006v-.012h-.007v-.013h-.006v-.006h-.006v-.012h-.006v-.012h-.006v-.007h-.006v-.012h-.006v-.012h-.007v-.006h-.006v-.013h-.006v-.006h-.006v-.012h-.006v-.006h-.006v-.013h-.006v-.006h-.007v-.012h-.006v-.006h-.006v-.013h-.006v-.006h-.006v-.006h-.006v-.012h-.007v-.006h-.006v-.006h-.006v-.006h-.006v-.013h-.006v-.006h-.006v-.006h-.006v-.006h-.006v-.013h-.007v-.006h-.006v-.006h-.006V14.6h-.006v-.006h-.006v-.012h-.006v-.007h-.007v-.006h-.006v-.006H11.6v-.006h-.006v-.006h-.006v-.006h-.006v-.006h-.006v-.007h-.007v-.006h-.006v-.006h-.006v-.012h-.006v-.006h-.012v-.007h-.007v-.006h-.006v-.006h-.006v-.006h-.006v-.006h-.006v-.006H11.5v-.006h-.006v-.006h-.006v-.007h-.007v-.006h-.006v-.006h-.006v-.006h-.006v-.006h-.006v-.006h-.013v-.007h-.006v-.006h-.006v-.006h-.006v-.006h-.006v-.006h-.012v-.006h-.007v-.006h-.006v-.007h-.006v-.006h-.006v-.006h-.012v-.006h-.006v-.006h-.013v-.006h-.006v-.007h-.006v-.006h-.012v-.006h-.007v-.006h-.006v-.006h-.012v-.006h-.006v-.006h-.012v-.006h-.006v-.007h-.013v-.006h-.006v-.006h-.012v-.006h-.006v-.006h-.013v-.006h-.012v-.007h-.006v-.006H11.2v-.006h-.007v-.006h-.012v-.006h-.012v-.006h-.013v-.006h-.012V14.2h-.006v-.006h-.012v-.006h-.012v-.006H11.1v-.006h-.012v-.006h-.012v-.006h-.013v-.007h-.012v-.006h-.012v-.006h-.019v-.006h-.012v-.006h-.012v-.006h-.013v-.007h-.018v-.006h-.012v-.006h-.019v-.006h-.018v-.006h-.012v-.006h-.019v-.006h-.018v-.006h-.019v-.007h-.018v-.006h-.025v-.006h-.018v-.006h-.019v-.006h-.024v-.006h-.025v-.007h-.025v-.006h-.03v-.006h-.025v-.006h-.037v-.006h-.03v-.006h-.031v-.006h-.025v-.007h-.03v-.006h-.031v-.006h-.025v-.006h-.043v-.006h-.037v-.006h-.037v-.007h-.037v-.006h-.08v-.006h-.24v.006h-.06v.006h-.044v.007h-.049v.006h-.037v.006h-.03v.006h-.025v.006h-.03v.006h-.025v.007h-.025v.006h-.025v.006H9.59v.006h-.02v.006h-.018v.006h-.018v.006h-.019v.007h-.024v.006h-.013v.006H9.46v.006h-.013v.006h-.012v.006h-.018v.007h-.013v.006h-.018v.006h-.012v.006H9.36v.006h-.018v.006H9.33v.006h-.013v.006h-.012v.007H9.3v.006h-.012v.006h-.013v.006h-.012v.006h-.012v.006h-.013v.007h-.012v.006h-.012v.006h-.012v.006h-.007v.006h-.012v.006h-.006v.006h-.012v.007h-.006v.006h-.013v.006H9.14v.006h-.012v.006h-.012v.006h-.007v.006h-.012v.007h-.006v.006h-.012v.006h-.007v.006H9.06v.006h-.006v.006h-.006v.007h-.012v.006h-.007v.006h-.006v.006h-.012v.006h-.006v.006h-.006v.006h-.013v.006H8.98v.007h-.006v.006h-.006v.006h-.006v.006h-.006v.006h-.013v.006h-.006v.007h-.006v.006h-.006v.006h-.006v.006h-.006v.006h-.006v.006H8.9v.006h-.006v.007h-.006v.006h-.006v.006h-.006v.006H8.87v.006h-.007v.006h-.006v.007h-.006v.006h-.006v.006H8.84v.006h-.006v.006h-.006v.006H8.82v.006h-.006v.006h-.006v.007h-.006v.006h-.006v.006H8.79v.006h-.006v.012h-.007v.007h-.006v.006h-.006v.006H8.76v.006h-.006v.012h-.006v.006H8.74v.007h-.007v.006h-.006v.006h-.006v.012h-.006v.006H8.71v.006h-.006v.007h-.007v.006h-.006v.012h-.006v.006H8.68v.006h-.006v.013h-.006v.006H8.66v.012h-.007v.006h-.006v.012h-.006v.007h-.006v.012H8.63v.012h-.006v.006h-.006v.013H8.61v.006h-.006v.012H8.6v.006h-.006v.013h-.006v.006H8.58v.012h-.006v.006h-.007v.013h-.006v.012h-.006v.012H8.55v.012h-.006v.013h-.006v.012h-.006v.012h-.007v.013H8.52v.012h-.006v.012h-.006v.012H8.5v.013h-.006v.012h-.007v.018h-.006v.013h-.006v.018H8.47v.013h-.006v.018h-.006v.018h-.006v.019h-.007v.012H8.44v.019h-.006v.018h-.006v.018h-.006v.019h-.006v.018H8.41v.025h-.007v.024h-.006v.031H8.39v.025h-.006v.024h-.006v.025h-.006v.03h-.006v.044h-.007v.055h-.006v.055h-.006v.062h-.006v.178h.006v.142h.006v.147h.006v.074h.007v.043h.006v.05h.006v.036h.006v.025h.006v.03h.006v.031h.006v.025h.007v.024h.006v.019h.006v.024h.006v.019h.006v.024h.006v.019h.006v.012h.007v.018h.006v.019h.006v.018h.006v.013h.006v.018h.006v.018h.006v.013h.007v.012H8.5v.012h.006v.013h.006v.012h.006v.018h.006v.013h.007v.012h.006v.012h.006v.013h.006v.012h.006v.006h.006v.012h.006v.013h.007v.012h.006v.012h.006v.013h.006v.006h.006v.012h.006v.012h.006v.006h.007v.013h.006v.006h.006v.012h.006v.006h.006v.013h.006v.006h.006v.012h.007v.006h.006v.012h.006v.007h.006v.012h.006v.006h.006v.006h.006v.012h.007v.007h.006v.006h.006v.012h.006v.006h.006v.006h.006v.007h.007v.012h.006v.006h.006v.006h.006v.006h.006v.006h.006v.013h.006v.006h.007v.006h.006v.006h.006v.006h.006v.006h.006v.007h.006v.006h.006v.012h.007v.006h.006v.006h.006v.006h.006v.007h.006v.006h.006v.006h.006v.006h.007v.006h.006v.006h.006v.007h.006v.006h.006v.006H8.9v.006h.007v.006h.012v.006h.006v.006h.006v.007h.006v.006h.006v.006h.007v.006h.006v.006h.012v.006h.006v.006h.006v.007h.006v.006h.007v.006h.012v.006h.006v.006h.006v.006h.006v.006h.013v.007h.006v.006h.006v.006h.012v.006h.006v.006h.006v.006h.013v.006h.006v.007h.012v.006h.006v.006h.007v.006h.012v.006h.006v.006h.012v.007h.013v.006h.006v.006h.012v.006h.012v.006h.006v.006h.013v.006h.006v.007h.012v.006h.012v.006h.007v.006h.012v.006h.012v.006h.013v.006h.012v.007h.012v.006h.012v.006h.013v.006h.012v.006h.012v.006h.013v.006h.018v.007h.012v.006h.013v.006h.012v.006h.018v.006h.013v.006h.018v.007h.012v.006h.019v.006h.018v.006h.019v.006h.018v.006h.025v.006H9.6v.007h.019v.006h.024v.006h.025v.006h.024v.006h.031v.006h.025v.006h.03v.007h.037v.006h.05v.006h.043v.006"/></g><path fill="#172A2D" d="M19.54 8.397q.203.371.548.579t.78.207q.447 0 .808-.213a1.35 1.35 0 0 0 .553-.573 1.84 1.84 0 0 0 .19-.85 1.57 1.57 0 0 0-.201-.776 1.54 1.54 0 0 0-.552-.574 1.5 1.5 0 0 0-.787-.201q-.468 0-.797.201a1.46 1.46 0 0 0-.541.574 1.6 1.6 0 0 0-.192.776q0 .467.192.85Zm.15 2.624q.467.308 1.094.308.477 0 .839-.18.765-.384.765-1.51v-.052a2.4 2.4 0 0 1-1.668.659q-.723 0-1.296-.362a2.47 2.47 0 0 1-.92-.972 2.9 2.9 0 0 1-.323-1.365q0-.648.34-1.297a2.46 2.46 0 0 1 2.21-1.316q.478 0 .903.164.424.165.754.473v-.638h1.147v4.675q0 .998-.34 1.583-.33.584-.945.882-.617.297-1.466.297-1.01 0-1.706-.44a2.38 2.38 0 0 1-.982-1.27l1.01-.457q.116.51.583.818Zm6.188-4.675q-.23.297-.229 1.073v2.826h-1.158l.01-2.826q.012-1.233.537-1.822.526-.59 1.663-.59.702 0 .786.01V6.06l-.786-.01q-.595 0-.823.297Zm3.501-1.413v5.312H28.22V4.933h1.158Zm-1.052-1.525a.65.65 0 0 1 .467-.196.66.66 0 0 1 .478.196.64.64 0 0 1 .202.473.65.65 0 0 1-.202.478.65.65 0 0 1-.478.202.64.64 0 0 1-.472-.202.66.66 0 0 1-.197-.478q0-.276.202-.473m6.098 3.347a1.3 1.3 0 0 0-.552-.558 1.6 1.6 0 0 0-.786-.201q-.457 0-.802.196a1.33 1.33 0 0 0-.537.58 1.7 1.7 0 0 0-.191.775q0 .477.191.85.192.372.553.573.339.213.786.213.435 0 .78-.207t.548-.58q.202-.37.202-.85 0-.424-.192-.79Zm1.036 2.152q-.324.615-.908.977a2.5 2.5 0 0 1-1.317.361q-.479 0-.904-.17a2.3 2.3 0 0 1-.754-.488v2.783h-1.147V4.933h1.147v.638q.33-.309.754-.473.425-.165.893-.165.711 0 1.301.345.59.346.93.972.33.596.33 1.297 0 .744-.325 1.36M9.129 4.778a3.025 3.025 0 1 1-6.05 0 3.025 3.025 0 0 1 6.05 0m.884 17.556a1.666 1.666 0 1 1-3.331 0 1.666 1.666 0 0 1 3.331 0"/></g><defs><clipPath id="a"><path fill="#fff" d="M0 0h43.697v24H0z"/></clipPath></defs></svg>