<svg xmlns="http://www.w3.org/2000/svg" width="105" height="24" fill="none"><g clip-path="url(#a)"><mask id="b" width="105" height="24" x="0" y="0" maskUnits="userSpaceOnUse" style="mask-type:luminance"><path fill="#fff" d="M104.739 0H0v23.991h104.739z"/></mask><g fill="#172A2D" mask="url(#b)"><path d="M3.12 5.098H.158A.157.157 0 0 0 0 5.254v13.1c0 .087.07.157.157.157H3.12c.086 0 .156-.07.156-.157v-13.1a.157.157 0 0 0-.156-.156M18.813 18.51H12.28a.135.135 0 0 1-.134-.135V3.242c0-.09.086-.155.173-.129l6.533 1.955c.057.017.096.07.096.129v13.178c0 .074-.06.134-.134.134Zm-13.893 0h5.584c.074 0 .134-.06.134-.134V3.246a.134.134 0 0 0-.175-.127l-5.585 1.94a.13.13 0 0 0-.093.128v13.19c0 .073.06.134.134.134ZM85.025 1.99c0-1.12.895-1.99 1.99-1.99s1.988.87 1.988 1.99a1.98 1.98 0 0 1-1.989 1.987 1.995 1.995 0 0 1-1.989-1.988Zm3.755 3.355V18.2a.075.075 0 0 1-.075.074h-3.382a.075.075 0 0 1-.074-.074V5.345c0-.041.033-.075.074-.075h3.382c.041 0 .075.034.075.075M64.3 5.272h2.852c.042 0 .075.033.075.074V18.2a.075.075 0 0 1-.075.075h-3.406a.075.075 0 0 1-.075-.075v-2.163c-.646 1.541-2.361 2.486-4.524 2.486-3.953 0-6.265-3.082-6.265-6.787S55.318 5 59.346 5c1.64 0 3.356.745 4.326 2.188v.075l.556-1.936a.075.075 0 0 1 .071-.054Zm-.653 6.488c0-2.063-1.492-3.555-3.58-3.555s-3.63 1.467-3.63 3.555 1.517 3.605 3.63 3.605 3.58-1.516 3.58-3.605m-12.429-1.667v8.105a.075.075 0 0 1-.075.075H47.76a.075.075 0 0 1-.074-.075v-7.184c0-2.164-1.045-2.984-2.362-2.984s-2.487.895-2.487 2.984v7.184a.075.075 0 0 1-.075.075h-3.381a.075.075 0 0 1-.075-.075v-7.184c0-2.164-1.069-2.984-2.362-2.984-1.367 0-2.51.895-2.51 2.984v7.184a.075.075 0 0 1-.076.075h-3.381a.075.075 0 0 1-.075-.075V5.345c0-.041.034-.075.075-.075h2.756c.032 0 .06.02.07.05l.58 1.69c.745-1.194 1.964-2.014 3.779-2.014 1.64 0 3.033.72 3.853 2.014.87-1.194 2.238-2.014 4.251-2.014 2.959 0 4.947 1.915 4.947 5.096l.004.001Zm32.392 1.716c0 3.854-2.437 6.738-6.465 6.738-1.64 0-3.355-.746-4.325-2.188v7.557a.075.075 0 0 1-.075.075h-3.381a.075.075 0 0 1-.075-.075V5.345c0-.041.033-.075.075-.075h2.778c.033 0 .063.022.072.054l.606 2.134v.075c.646-1.541 2.362-2.512 4.525-2.512 3.953 0 6.265 3.109 6.265 6.787zm-3.556-.025c0-2.113-1.516-3.58-3.63-3.58-2.112 0-3.58 1.492-3.58 3.58s1.492 3.58 3.58 3.58c2.09 0 3.63-1.491 3.63-3.58m21.831-6.512h2.781c.041 0 .074.033.074.074v18.572a.074.074 0 0 1-.074.074h-3.382a.074.074 0 0 1-.074-.074v-7.881c-.646 1.541-2.362 2.486-4.525 2.486-3.953 0-6.265-3.082-6.265-6.787S92.856 5 96.884 5c1.64 0 3.356.745 4.326 2.188l.604-1.863a.08.08 0 0 1 .071-.052Zm-.7 6.488c0-2.063-1.492-3.555-3.58-3.555s-3.63 1.467-3.63 3.555 1.517 3.605 3.63 3.605 3.58-1.516 3.58-3.605"/></g></g><defs><clipPath id="a"><path fill="#fff" d="M0 0h104.742v24H0z"/></clipPath></defs></svg>