<svg width="316" height="316" viewBox="0 0 316 316" xmlns="http://www.w3.org/2000/svg">
  <defs>
    <linearGradient id="dcg" x1="0.05" y1="0.05" x2="0.95" y2="0.95">
      <stop offset="0" stop-color="#DDA257"/>
      <stop offset="0.52" stop-color="#C08FBE"/>
      <stop offset="1" stop-color="#9F73D2"/>
    </linearGradient>
  </defs>
  <path d="M129.795939,83.799403 L194.08239,120.910459 L194.08239,169.980319 L105.789152,119.089349 L105.789152,237.834947 L62.9486455,214.549111 L62.9486455,119.720165 C62.9486455,110.17765 68.3945829,101.471938 76.9754831,97.2972829 L106.420433,82.9721539 C113.866324,79.3496875 122.62475,79.6596444 129.795939,83.799403 Z M209.709035,77.8349472 L252.549541,101.120783 L252.549541,195.94973 C252.549541,205.492245 247.103604,214.197957 238.522704,218.372612 L209.077753,232.697741 C201.631863,236.320207 192.873437,236.01025 185.702248,231.870491 L121.415797,194.759435 L121.415797,145.689575 L209.709035,196.580546 L209.709035,77.8349472 Z" fill="#9E72D2" opacity="0.5" transform="translate(14,18)"/>
  <path d="M129.795939,83.799403 L194.08239,120.910459 L194.08239,169.980319 L105.789152,119.089349 L105.789152,237.834947 L62.9486455,214.549111 L62.9486455,119.720165 C62.9486455,110.17765 68.3945829,101.471938 76.9754831,97.2972829 L106.420433,82.9721539 C113.866324,79.3496875 122.62475,79.6596444 129.795939,83.799403 Z M209.709035,77.8349472 L252.549541,101.120783 L252.549541,195.94973 C252.549541,205.492245 247.103604,214.197957 238.522704,218.372612 L209.077753,232.697741 C201.631863,236.320207 192.873437,236.01025 185.702248,231.870491 L121.415797,194.759435 L121.415797,145.689575 L209.709035,196.580546 L209.709035,77.8349472 Z" fill="url(#dcg)"/>
  <path d="M129.795939,83.799403 L194.08239,120.910459 L194.08239,169.980319 L105.789152,119.089349 L105.789152,237.834947 L62.9486455,214.549111 L62.9486455,119.720165 C62.9486455,110.17765 68.3945829,101.471938 76.9754831,97.2972829 L106.420433,82.9721539 C113.866324,79.3496875 122.62475,79.6596444 129.795939,83.799403 Z M209.709035,77.8349472 L252.549541,101.120783 L252.549541,195.94973 C252.549541,205.492245 247.103604,214.197957 238.522704,218.372612 L209.077753,232.697741 C201.631863,236.320207 192.873437,236.01025 185.702248,231.870491 L121.415797,194.759435 L121.415797,145.689575 L209.709035,196.580546 L209.709035,77.8349472 Z" fill="none" stroke="#D0922D" stroke-width="3" stroke-linejoin="round" transform="translate(-8,-10)"/>
</svg>
