<svg viewBox="0 0 460 340" xmlns="http://www.w3.org/2000/svg">
        <defs>
          <linearGradient id="cwG" x1="0" y1="0" x2="0" y2="1"><stop offset="0" stop-color="#FFDE8E"/><stop offset="1" stop-color="#E6A532"/></linearGradient>
          <linearGradient id="cwGd" x1="0" y1="0" x2="0" y2="1"><stop offset="0" stop-color="#F0BB4E"/><stop offset="1" stop-color="#C9851C"/></linearGradient>
          <linearGradient id="cwT1" x1="0" y1="0" x2="0" y2="1"><stop offset="0" stop-color="#B7ECDF"/><stop offset="1" stop-color="#5FC6AE"/></linearGradient>
          <linearGradient id="cwT2" x1="0" y1="0" x2="0" y2="1"><stop offset="0" stop-color="#CFF2E9"/><stop offset="1" stop-color="#84D5C2"/></linearGradient>
          <linearGradient id="cwChk" x1="0" y1="0" x2="0" y2="1"><stop offset="0" stop-color="#5FC08A"/><stop offset="1" stop-color="#2F9E6F"/></linearGradient>
          <filter id="cwSh" x="-60%" y="-60%" width="220%" height="220%"><feGaussianBlur in="SourceGraphic" stdDeviation="13"/></filter>
        </defs>
        <ellipse cx="230" cy="314" rx="140" ry="18" fill="#0C3A33" opacity="0.17" filter="url(#cwSh)"/>
        <g transform="rotate(-8 150 210)">
          <rect x="96" y="150" width="116" height="150" rx="15" fill="#46AE97"/>
          <rect x="96" y="144" width="116" height="150" rx="15" fill="url(#cwT2)"/>
          <circle cx="124" cy="174" r="12" fill="#fff" opacity="0.85"/>
          <rect x="144" y="168" width="48" height="7" rx="3.5" fill="#fff" opacity="0.7"/>
          <rect x="144" y="180" width="34" height="7" rx="3.5" fill="#fff" opacity="0.5"/>
          <rect x="112" y="204" width="80" height="8" rx="4" fill="#fff" opacity="0.45"/>
          <rect x="112" y="222" width="80" height="8" rx="4" fill="#fff" opacity="0.4"/>
          <rect x="112" y="240" width="54" height="8" rx="4" fill="#fff" opacity="0.35"/>
        </g>
        <g transform="rotate(8 310 210)">
          <rect x="248" y="150" width="116" height="150" rx="15" fill="#46AE97"/>
          <rect x="248" y="144" width="116" height="150" rx="15" fill="url(#cwT1)"/>
          <circle cx="276" cy="174" r="12" fill="#fff" opacity="0.85"/>
          <rect x="296" y="168" width="48" height="7" rx="3.5" fill="#fff" opacity="0.7"/>
          <rect x="296" y="180" width="34" height="7" rx="3.5" fill="#fff" opacity="0.5"/>
          <rect x="264" y="204" width="80" height="8" rx="4" fill="#fff" opacity="0.45"/>
          <rect x="264" y="222" width="80" height="8" rx="4" fill="#fff" opacity="0.4"/>
          <rect x="264" y="240" width="54" height="8" rx="4" fill="#fff" opacity="0.35"/>
        </g>
        <path d="M174 150 C 146 150, 146 196, 182 196" fill="none" stroke="#C9851C" stroke-width="9" stroke-linecap="round"/>
        <path d="M286 150 C 314 150, 314 196, 278 196" fill="none" stroke="#C9851C" stroke-width="9" stroke-linecap="round"/>
        <path d="M172 132 H288 L276 182 Q230 214 184 182 Z" fill="#C9851C"/>
        <path d="M172 128 H288 L276 178 Q230 210 184 178 Z" fill="url(#cwG)"/>
        <ellipse cx="230" cy="128" rx="58" ry="11" fill="#FFE7A8"/>
        <path d="M230 150 l6.3 12.9 14.2 2.1 -10.3 10 2.4 14.1 -12.6 -6.7 -12.6 6.7 2.4 -14.1 -10.3 -10 14.2 -2.1 Z" fill="#fff" opacity="0.92"/>
        <rect x="220" y="204" width="18" height="28" fill="#C9851C"/>
        <rect x="220" y="202" width="18" height="28" fill="url(#cwGd)"/>
        <rect x="200" y="230" width="60" height="10" rx="3" fill="#B5791C"/>
        <path d="M192 240 H268 L276 262 H184 Z" fill="#C9851C"/>
        <path d="M192 238 H268 L276 260 H184 Z" fill="url(#cwG)"/>
        <circle cx="292" cy="118" r="23" fill="#1C6B4A"/>
        <circle cx="292" cy="114" r="23" fill="url(#cwChk)"/>
        <path d="M281 114 l7.5 7.5 l14 -16" stroke="#fff" stroke-width="5.5" fill="none" stroke-linecap="round" stroke-linejoin="round"/>
      </svg>