<svg viewBox="0 0 500 392" xmlns="http://www.w3.org/2000/svg"><defs><linearGradient id="cmCard" x1="0" y1="0" x2="0" y2="1"><stop offset="0" stop-color="#FFFFFF"/><stop offset="1" stop-color="#F4F0FB"/></linearGradient><linearGradient id="cmHdr" x1="0" y1="0" x2="0" y2="1"><stop offset="0" stop-color="#C7B5E8"/><stop offset="1" stop-color="#9D83CC"/></linearGradient><linearGradient id="cmAv" x1="0" y1="0" x2="0" y2="1"><stop offset="0" stop-color="#B9A6DC"/><stop offset="1" stop-color="#8B6FB8"/></linearGradient><linearGradient id="cmGrn" x1="0" y1="0" x2="0" y2="1"><stop offset="0" stop-color="#5FC08A"/><stop offset="1" stop-color="#2F9E6F"/></linearGradient><linearGradient id="cmRef" x1="0" y1="0" x2="0" y2="1"><stop offset="0" stop-color="#C7B5E8"/><stop offset="1" stop-color="#8B6FB8"/></linearGradient><filter id="cmSh" x="-50%" y="-50%" width="200%" height="200%"><feGaussianBlur in="SourceGraphic" stdDeviation="15"/></filter></defs><ellipse cx="252" cy="374" rx="182" ry="20" fill="#241A38" opacity="0.16" filter="url(#cmSh)"/><rect x="64" y="60" width="356" height="300" rx="22" fill="#C7BBDF"/><rect x="64" y="52" width="356" height="300" rx="22" fill="url(#cmCard)"/><path d="M64 74 a22 22 0 0 1 22 -22 h312 a22 22 0 0 1 22 22 v20 H64 Z" fill="url(#cmHdr)"/><circle cx="88" cy="73" r="4.5" fill="#fff" opacity="0.9"/><rect x="100" y="68" width="92" height="10" rx="5" fill="#fff" opacity="0.85"/><g stroke="#fff" stroke-width="2.6" fill="none" stroke-linecap="round"><path d="M384 71 a7 7 0 0 1 12 -3"/><path d="M402 75 a7 7 0 0 1 -12 3"/></g><path d="M398 64 l1 6 -6 -1 Z" fill="#fff"/><path d="M388 82 l-1 -6 6 1 Z" fill="#fff"/><circle cx="96" cy="134" r="15" fill="url(#cmAv)"/><circle cx="96" cy="130" r="6" fill="#fff" opacity="0.92"/><path d="M84 144 a12 10 0 0 1 24 0 z" fill="#fff" opacity="0.92"/><rect x="122" y="126" width="120" height="9" rx="4.5" fill="#3A2F52"/><rect x="122" y="140" width="78" height="6" rx="3" fill="#A99CC4"/><circle cx="372" cy="134" r="13" fill="#1C6B4A"/><circle cx="372" cy="132" r="13" fill="url(#cmGrn)"/><path d="M366 132 l4 4 7 -8" stroke="#fff" stroke-width="3" fill="none" stroke-linecap="round" stroke-linejoin="round"/><circle cx="96" cy="178" r="15" fill="url(#cmAv)"/><circle cx="96" cy="174" r="6" fill="#fff" opacity="0.92"/><path d="M84 188 a12 10 0 0 1 24 0 z" fill="#fff" opacity="0.92"/><rect x="122" y="170" width="120" height="9" rx="4.5" fill="#3A2F52"/><rect x="122" y="184" width="78" height="6" rx="3" fill="#A99CC4"/><circle cx="372" cy="178" r="13" fill="#1C6B4A"/><circle cx="372" cy="176" r="13" fill="url(#cmGrn)"/><path d="M366 176 l4 4 7 -8" stroke="#fff" stroke-width="3" fill="none" stroke-linecap="round" stroke-linejoin="round"/><circle cx="96" cy="222" r="15" fill="url(#cmAv)"/><circle cx="96" cy="218" r="6" fill="#fff" opacity="0.92"/><path d="M84 232 a12 10 0 0 1 24 0 z" fill="#fff" opacity="0.92"/><rect x="122" y="214" width="120" height="9" rx="4.5" fill="#3A2F52"/><rect x="122" y="228" width="78" height="6" rx="3" fill="#A99CC4"/><circle cx="372" cy="221" r="13" fill="url(#cmRef)"/><g stroke="#fff" stroke-width="2.4" fill="none" stroke-linecap="round"><path d="M366 218 a6 6 0 0 1 11 2"/><path d="M378 224 a6 6 0 0 1 -11 -2"/></g><path d="M378 215 l0.6 5 -5 -1 Z" fill="#fff"/><path d="M366 227 l-0.6 -5 5 1 Z" fill="#fff"/><circle cx="96" cy="266" r="15" fill="url(#cmAv)"/><circle cx="96" cy="262" r="6" fill="#fff" opacity="0.92"/><path d="M84 276 a12 10 0 0 1 24 0 z" fill="#fff" opacity="0.92"/><rect x="122" y="258" width="120" height="9" rx="4.5" fill="#3A2F52"/><rect x="122" y="272" width="78" height="6" rx="3" fill="#A99CC4"/><circle cx="372" cy="266" r="13" fill="#1C6B4A"/><circle cx="372" cy="264" r="13" fill="url(#cmGrn)"/><path d="M366 264 l4 4 7 -8" stroke="#fff" stroke-width="3" fill="none" stroke-linecap="round" stroke-linejoin="round"/><circle cx="406" cy="340" r="35" fill="#fff"/><circle cx="406" cy="334" r="35" fill="url(#cmRef)"/><g stroke="#fff" stroke-width="5.5" fill="none" stroke-linecap="round"><path d="M390 320 a21 21 0 0 1 34 6"/><path d="M422 348 a21 21 0 0 1 -34 -6"/></g><path d="M426 316 l1.5 13 -13 -3 Z" fill="#fff"/><path d="M386 352 l-1.5 -13 13 3 Z" fill="#fff"/></svg>