<?xml version="1.0" encoding="UTF-8"?>
<svg width="316px" height="316px" viewBox="0 0 316 316" version="1.1" xmlns="http://www.w3.org/2000/svg" xmlns:xlink="http://www.w3.org/1999/xlink">
    <title>Nebor</title>
    <defs>
        <rect id="path-1" x="0" y="0" width="316" height="316" rx="39"></rect>
    </defs>
    <g id="nebor-icon" stroke="none" stroke-width="1" fill="none" fill-rule="evenodd">
        <g id="Group">
            <mask id="mask-2" fill="white">
                <use xlink:href="#path-1"></use>
            </mask>
            <use id="Mask" fill="#E0C4FC" xlink:href="#path-1"></use>
            <path d="M129.795939,83.799403 L194.08239,120.910459 L194.08239,169.980319 L105.789152,119.089349 L105.789152,237.834947 L62.9486455,214.549111 L62.9486455,119.720165 C62.9486455,110.17765 68.3945829,101.471938 76.9754831,97.2972829 L106.420433,82.9721539 C113.866324,79.3496875 122.62475,79.6596444 129.795939,83.799403 Z M209.709035,77.8349472 L252.549541,101.120783 L252.549541,195.94973 C252.549541,205.492245 247.103604,214.197957 238.522704,218.372612 L209.077753,232.697741 C201.631863,236.320207 192.873437,236.01025 185.702248,231.870491 L121.415797,194.759435 L121.415797,145.689575 L209.709035,196.580546 L209.709035,77.8349472 Z" id="Combined-Shape" fill="#FFFFFF" mask="url(#mask-2)"></path>
        </g>
    </g>
</svg>
