      <svg viewBox="92 52 300 292" xmlns="http://www.w3.org/2000/svg">
        <defs>
          <linearGradient id="cardFace" x1="0" y1="0" x2="0" y2="1"><stop offset="0" stop-color="#FFFFFF"/><stop offset="1" stop-color="#EEF1F7"/></linearGradient>
          <linearGradient id="cardGloss" x1="0" y1="0" x2="0" y2="1"><stop offset="0" stop-color="#FFFFFF" stop-opacity="0.34"/><stop offset="0.45" stop-color="#FFFFFF" stop-opacity="0"/></linearGradient>
          <radialGradient id="avBlue" cx="0.36" cy="0.3" r="0.9"><stop offset="0" stop-color="#7FC9F5"/><stop offset="0.5" stop-color="#3498DB"/><stop offset="1" stop-color="#1F6FA8"/></radialGradient>
          <linearGradient id="domeBlue" x1="0" y1="0" x2="0" y2="1"><stop offset="0" stop-color="#7CD6F6"/><stop offset="1" stop-color="#39A6DF"/></linearGradient>
          <linearGradient id="domeCoral" x1="0" y1="0" x2="0" y2="1"><stop offset="0" stop-color="#FB8893"/><stop offset="1" stop-color="#E8505F"/></linearGradient>
          <linearGradient id="domeYellow" x1="0" y1="0" x2="0" y2="1"><stop offset="0" stop-color="#FFDC52"/><stop offset="1" stop-color="#F2B400"/></linearGradient>
          <filter id="mwSh" x="-60%" y="-60%" width="220%" height="220%"><feGaussianBlur in="SourceGraphic" stdDeviation="13"/></filter>
          <clipPath id="cardClip"><rect x="118" y="84" width="244" height="204" rx="18"/></clipPath>
          <clipPath id="avClip"><circle cx="152" cy="130" r="24"/></clipPath>
        </defs>
        <ellipse cx="240" cy="306" rx="132" ry="20" fill="#11233F" opacity="0.22" filter="url(#mwSh)"/>
        <rect x="118" y="96" width="244" height="204" rx="18" fill="#C2C7D2"/>
        <rect x="118" y="84" width="244" height="204" rx="18" fill="url(#cardFace)"/>
        <g clip-path="url(#cardClip)">
          <circle cx="152" cy="130" r="24" fill="url(#avBlue)"/>
          <g clip-path="url(#avClip)"><circle cx="152" cy="122" r="8.5" fill="#FFFFFF"/><ellipse cx="152" cy="142" rx="14.5" ry="10" fill="#FFFFFF"/></g>
          <rect x="190" y="112" width="92" height="11" rx="5.5" fill="#8A93A4"/>
          <rect x="190" y="132" width="96" height="18" rx="9" fill="#2ECC71"/>
          <rect x="199" y="136" width="11" height="10" rx="2" fill="#FFFFFF"/><rect x="199" y="136" width="11" height="3.5" rx="1.5" fill="#FFFFFF"/>
          <rect x="216" y="139" width="58" height="5" rx="2.5" fill="#FFFFFF" opacity="0.92"/>
          <line x1="134" y1="166" x2="346" y2="166" stroke="#E7EBF1" stroke-width="1.5"/>
          <rect x="134" y="180" width="26" height="26" rx="7" fill="#3498DB"/>
          <rect x="140" y="187" width="14" height="13" rx="1" fill="#FFFFFF"/><rect x="143" y="190" width="3" height="3" fill="#3498DB"/><rect x="148" y="190" width="3" height="3" fill="#3498DB"/>
          <rect x="170" y="184" width="130" height="8" rx="4" fill="#A9B2C2"/><rect x="170" y="196" width="78" height="6" rx="3" fill="#CFD5E0"/>
          <rect x="134" y="216" width="26" height="26" rx="7" fill="#C9776A"/>
          <rect x="139" y="225" width="16" height="11" rx="2" fill="#FFFFFF"/><rect x="144" y="221" width="6" height="4" rx="1" fill="#FFFFFF"/>
          <rect x="170" y="220" width="112" height="8" rx="4" fill="#A9B2C2"/><rect x="170" y="232" width="64" height="6" rx="3" fill="#CFD5E0"/>
          <rect x="134" y="252" width="26" height="26" rx="7" fill="#2ECC71"/>
          <rect x="140" y="266" width="3" height="6" fill="#FFFFFF"/><rect x="146" y="262" width="3" height="10" fill="#FFFFFF"/><rect x="152" y="258" width="3" height="14" fill="#FFFFFF"/>
          <rect x="170" y="256" width="140" height="8" rx="4" fill="#A9B2C2"/><rect x="170" y="268" width="92" height="6" rx="3" fill="#CFD5E0"/>
        </g>
        <rect x="118" y="84" width="244" height="204" rx="18" fill="url(#cardGloss)"/>
        <rect x="118.75" y="84.75" width="242.5" height="202.5" rx="17.5" fill="none" stroke="#FFFFFF" stroke-opacity="0.5" stroke-width="1.5"/>
        <ellipse cx="336" cy="98" rx="26" ry="4" fill="#11233F" opacity="0.15"/>
        <path d="M310 96 A26 32 0 0 1 362 96 Z" transform="translate(0 2)" fill="#2E96C8"/>
        <path d="M310 96 A26 32 0 0 1 362 96 Z" fill="url(#domeBlue)"/>
        <path d="M319 96 A17 21 0 0 1 353 96 Z" fill="url(#domeCoral)"/>
        <path d="M328 96 A8 12 0 0 1 344 96 Z" fill="url(#domeYellow)"/>
        <ellipse cx="336" cy="96" rx="26" ry="3" fill="#1E7AAA" opacity="0.4"/>
        <path d="M315 82 A26 32 0 0 1 328 71" fill="none" stroke="#FFFFFF" stroke-width="3.5" opacity="0.5" stroke-linecap="round"/>
      </svg>
